<svg width="500" height="500" viewBox="0 0 500 500" fill="none" xmlns="http://www.w3.org/2000/svg">
<path d="M468.93 298.94L467.86 297.65C463.527 292.314 457.817 288.264 451.349 285.937C444.881 283.611 437.899 283.096 431.16 284.45C429.404 284.837 427.679 285.355 426 286C419.918 288.355 414.513 292.176 410.265 297.124C406.017 302.071 403.057 307.992 401.65 314.36C400.04 321.87 400.51 330.19 396.3 336.58C390.83 344.91 379.73 346.77 369.9 347.91C360.07 349.05 348.98 350.91 343.54 359.28C340.13 364.51 339.8 371.28 341.04 377.44C344.32 393.72 357.92 406.72 373.53 411.88C389.14 417.04 406.37 415.17 421.82 409.63C443.46 401.86 462.82 386.4 472.82 365.46C482.82 344.52 482.15 318 468.93 298.94Z" fill="#EBEBEB"/>
<path d="M37.4899 140.27L38.5899 141.18C43.0889 145.005 48.5485 147.526 54.3775 148.471C60.2066 149.416 66.1831 148.748 71.6599 146.54C73.0818 145.947 74.4588 145.252 75.7799 144.46C80.5405 141.512 84.4993 137.433 87.3045 132.587C90.1097 127.741 91.6745 122.277 91.8599 116.68C92.0299 110.08 90.3299 103.14 92.8599 97.07C96.1599 89.18 105.23 85.86 113.35 83.35C121.47 80.84 130.54 77.49 133.81 69.59C135.86 64.59 135.07 58.87 133.06 53.87C127.72 40.64 114.19 31.87 100.2 29.93C86.2099 27.99 71.9999 32.32 59.8099 39.44C42.8099 49.44 28.8099 65.52 23.7399 84.77C18.6699 104.02 23.3199 126.25 37.4899 140.27Z" fill="#EBEBEB"/>
<path d="M434.66 110.57C451.344 110.57 464.87 97.0445 464.87 80.36C464.87 63.6755 451.344 50.15 434.66 50.15C417.975 50.15 404.45 63.6755 404.45 80.36C404.45 97.0445 417.975 110.57 434.66 110.57Z" fill="#EBEBEB"/>
<path d="M100.396 356.471C104.393 340.273 94.5013 323.901 78.3026 319.904C62.1039 315.907 45.7321 325.799 41.7353 341.998C37.7386 358.197 47.6302 374.568 63.829 378.565C80.0277 382.562 96.3994 372.67 100.396 356.471Z" fill="#EBEBEB"/>
<path d="M406.64 198.32C406.64 196.04 406.57 193.777 406.43 191.53C406.31 189.29 406.14 187.05 405.91 184.83C405.74 183.02 405.54 181.25 405.29 179.47C405.04 177.69 404.76 175.72 404.45 173.87C403.524 168.329 402.292 162.844 400.76 157.44C400.173 155.38 399.547 153.333 398.88 151.3C398.213 149.267 397.503 147.25 396.75 145.25C396.6 144.87 396.48 144.49 396.32 144.12C392.893 135.072 388.621 126.367 383.56 118.12C382.48 116.373 381.377 114.647 380.25 112.94C379.55 111.94 378.83 110.81 378.1 109.79C377.18 108.43 376.2 107.13 375.22 105.79C374.45 104.79 373.67 103.71 372.87 102.71C372.32 102.01 371.74 101.31 371.17 100.61C370.6 99.91 369.92 99.03 369.22 98.26L367.11 95.83C366.901 95.5677 366.677 95.3173 366.44 95.08C365.71 94.23 364.94 93.4 364.16 92.57C364.103 92.4706 364.024 92.3852 363.93 92.32C363.73 92.1 363.51 91.87 363.28 91.65C362.66 90.95 361.98 90.27 361.33 89.65C360.25 88.54 359.15 87.44 358.03 86.39C357.1 85.47 356.15 84.59 355.17 83.71C354.19 82.83 353.47 82.16 352.59 81.41C351.71 80.66 350.89 79.93 350.02 79.21C349.02 78.31 347.89 77.43 346.79 76.55C343.79 74.13 340.63 71.82 337.43 69.67C336.63 69.12 335.85 68.59 335.05 68.07C334.25 67.55 333.43 67.07 332.62 66.52C331.81 65.97 331 65.52 330.17 65.01C329.34 64.5 328.52 64.01 327.69 63.54C327.02 63.14 326.37 62.76 325.69 62.41C325.369 62.2 325.035 62.0096 324.69 61.84C323.27 61.03 321.82 60.26 320.36 59.53C319.64 59.16 318.91 58.78 318.16 58.43C317.24 57.96 316.28 57.5 315.33 57.08C315.199 56.9955 315.058 56.9283 314.91 56.88C314.06 56.48 313.2 56.08 312.33 55.7C311.1 55.18 309.88 54.65 308.65 54.15C307.25 53.58 305.85 53 304.42 52.47C302.84 51.87 301.26 51.3 299.66 50.77C298.06 50.24 296.43 49.7 294.81 49.19C293.19 48.68 291.55 48.19 289.9 47.79C286.65 46.92 283.34 46.14 280.01 45.46C279.953 45.4644 279.897 45.4644 279.84 45.46C278.56 45.21 277.28 44.96 276.01 44.76C275.927 44.7534 275.843 44.7534 275.76 44.76C275.21 44.66 274.63 44.56 274.06 44.49C271.68 44.09 269.27 43.76 266.85 43.49C266.559 43.4408 266.265 43.4074 265.97 43.39C265.27 43.29 264.57 43.24 263.84 43.16C262.24 43.01 260.64 42.89 259.01 42.79C257.38 42.69 255.63 42.59 253.93 42.54C252.23 42.49 250.38 42.44 248.6 42.44C243.893 42.44 239.227 42.6467 234.6 43.06C233.5 43.14 232.42 43.24 231.35 43.36C230.28 43.48 229.09 43.61 227.97 43.76C226.85 43.91 225.71 44.06 224.61 44.24C223.51 44.42 222.39 44.59 221.26 44.79C220.31 44.94 219.33 45.11 218.38 45.31C216.027 45.77 213.693 46.2733 211.38 46.82C210.3 47.07 209.22 47.34 208.15 47.64C207.08 47.94 206 48.22 204.94 48.52C203.17 49.02 201.44 49.52 199.71 50.12C198.31 50.6 196.88 51.07 195.5 51.55C195.467 51.5411 195.433 51.5411 195.4 51.55C193.97 52.05 192.6 52.55 191.2 53.12L190.97 53.2C189.69 53.7 188.42 54.2 187.17 54.75C185.59 55.4 184.04 56.1 182.51 56.75C181.21 57.35 179.93 57.96 178.68 58.58C177.43 59.2 175.98 59.93 174.68 60.58L174.53 60.66C173.25 61.33 171.98 62.04 170.73 62.76C169.48 63.48 168.15 64.24 166.87 65.04C165.66 65.77 164.49 66.49 163.31 67.24C162.86 67.52 162.43 67.82 161.98 68.12C160.73 68.92 159.53 69.75 158.3 70.6C156.8 71.6 155.35 72.7 153.9 73.78C152.62 74.7333 151.367 75.7 150.14 76.68C143.061 82.3209 136.48 88.5606 130.47 95.33C128.34 97.68 126.34 100.08 124.39 102.54C122.73 104.64 121.13 106.77 119.61 108.97C118.23 110.89 116.897 112.84 115.61 114.82C114.33 116.82 113.1 118.82 111.91 120.82C106.257 130.497 101.658 140.753 98.1901 151.41C96.9701 155.15 95.8801 158.96 94.9501 162.82C94.0201 166.68 93.2101 170.59 92.5601 174.56C92.0401 177.673 91.6134 180.82 91.2801 184C90.9601 187.25 90.7301 190.48 90.6101 193.79C91.0597 193.415 91.4871 193.015 91.8901 192.59C92.5681 191.762 93.1958 190.893 93.7701 189.99C93.7025 190.101 93.6291 190.207 93.5501 190.31C93.3401 190.63 93.1301 190.93 92.9301 191.22C92.6001 191.7 92.3001 192.11 92.0401 192.42L91.8901 192.59C91.6501 192.84 91.4101 193.07 91.1901 193.28L90.6101 193.79C90.5785 194.082 90.5618 194.376 90.5601 194.67C90.5601 195.14 90.5601 195.61 90.5601 196.09C90.5601 196.57 90.5601 197.04 90.5601 197.52C90.5601 198.52 90.5601 199.42 90.5601 200.38C90.5601 201.15 90.5601 201.92 90.5601 202.69C90.5601 203.46 90.5601 204.24 90.5601 205.01C90.5601 205.38 90.5601 205.73 90.5601 206.11C91.1609 223.276 94.5589 240.229 100.62 256.3C101.01 257.3 101.43 258.3 101.83 259.3C103.217 262.753 104.723 266.137 106.35 269.45C107.6 272 108.9 274.52 110.28 276.99C111.84 279.87 113.54 282.7 115.28 285.48C117.48 288.91 119.78 292.26 122.28 295.48C124.58 298.58 127.04 301.61 129.61 304.48C133.14 308.506 136.875 312.348 140.8 315.99C141.67 316.8 142.55 317.61 143.44 318.4C146.107 320.78 148.857 323.063 151.69 325.25C153.29 326.53 154.92 327.73 156.57 328.91C157.87 329.85 159.183 330.767 160.51 331.66C161.837 332.553 163.17 333.43 164.51 334.29C165.46 334.89 166.42 335.47 167.39 336.04C191.911 350.705 219.949 358.446 248.52 358.44C274.402 358.478 299.894 352.134 322.74 339.97V339.97C327.549 337.403 332.222 334.589 336.74 331.54C348.517 323.623 359.17 314.15 368.41 303.38C371.06 300.32 373.57 297.14 375.97 293.89C377.2 292.21 378.4 290.53 379.52 288.81C388.009 276.343 394.638 262.707 399.2 248.33C401.996 239.59 404.004 230.618 405.2 221.52C405.68 217.97 406.05 214.36 406.3 210.73C406.5 207.27 406.63 203.82 406.63 200.32C406.69 199.77 406.69 199 406.64 198.32ZM100 189.52C100.01 189.38 100.01 189.24 100 189.1C99.9908 188.821 99.9403 188.544 99.8501 188.28C99.7554 188.015 99.6168 187.769 99.4401 187.55C99.2117 187.275 98.9377 187.042 98.6301 186.86C98.3783 186.721 98.0976 186.642 97.8101 186.63C98.1315 186.659 98.4432 186.756 98.7243 186.914C99.0054 187.073 99.2494 187.29 99.4401 187.55C99.6656 187.821 99.8319 188.137 99.9283 188.476C100.025 188.815 100.049 189.171 100 189.52V189.52ZM111.26 212.52C109.83 212.416 108.409 212.205 107.01 211.89C106.35 211.724 105.717 211.465 105.13 211.12C106.78 212.12 109.13 212.26 111.22 212.49L111.26 212.52ZM98.2601 191.71C98.4184 191.621 98.5719 191.525 98.7201 191.42C97.9315 191.831 97.1904 192.327 96.5101 192.9C97.0138 192.408 97.5906 191.996 98.2201 191.68L98.2601 191.71ZM97.8901 197.52C97.4647 197.218 97.0871 196.854 96.7701 196.44C96.5592 196.185 96.378 195.906 96.2301 195.61C95.9606 195.072 95.8762 194.461 95.9901 193.87C96.018 193.777 96.0549 193.686 96.1001 193.6C95.5501 194.99 96.6201 196.6 97.8901 197.52C98.6501 198.07 99.5001 198.52 100.28 199.02C99.4601 198.48 98.6101 198 97.8501 197.49L97.8901 197.52ZM164.89 327.16C164.799 326.243 164.762 325.321 164.78 324.4C164.755 321.341 165.696 318.352 167.47 315.86C167.776 315.476 168.111 315.115 168.47 314.78C165.32 317.7 164.38 322.39 164.83 327.13L164.89 327.16ZM170.89 313.04C172.32 312.32 173.89 311.92 175.12 310.81C173.89 311.89 172.27 312.29 170.84 313L170.89 313.04ZM176.8 307.25V307.11C176.8 307.11 176.8 307.03 176.8 307C176.8 307 176.8 307.09 176.8 307.13C176.8 307.17 176.76 307.16 176.75 307.22L176.8 307.25ZM177.3 301.99C177.3 301.99 177.3 301.89 177.3 301.85C177.41 300.41 178.01 299.051 179 298C180.261 297.014 181.763 296.382 183.35 296.17C183.86 296.05 184.35 295.92 184.86 295.78C182.81 296.38 180.55 296.55 179 298C177.973 299.092 177.355 300.505 177.25 302L177.3 301.99ZM194.13 254.31C194.275 252.41 193.83 250.513 192.856 248.875C191.883 247.238 190.428 245.94 188.69 245.16C190.428 245.94 191.883 247.238 192.856 248.875C193.83 250.513 194.275 252.41 194.13 254.31V254.31Z" fill="#407BFF"/>
<g opacity="0.2">
<path opacity="0.2" d="M346.29 232.81C352.53 227.41 355.05 215.2 347.29 212.38C344.35 211.31 340.97 212.17 338.06 211.04C334.26 209.57 332.49 205.3 331.11 201.47C327.51 191.403 323.907 181.333 320.3 171.26C318.13 165.19 314.83 158.16 308.45 157.26C304.84 156.75 301.33 158.48 297.74 159.13C285.38 161.38 264.59 131.46 255.18 151.6C253.87 146.13 244.97 148.18 242.13 153.04C239.29 157.9 238.69 164.34 234.18 167.72C230.75 170.29 225.71 170.45 222.9 173.72C220.9 176.01 220.59 179.24 220.34 182.25C219.86 188.003 219.384 193.757 218.91 199.51C218.52 204.15 218.21 209.12 220.5 213.17C222.79 217.22 228.8 219.47 232.24 216.33C233.82 214.89 234.49 212.7 235.78 210.99C236.851 209.626 238.292 208.601 239.931 208.037C241.57 207.473 243.337 207.394 245.02 207.81C247.83 208.55 250.07 210.63 252.02 212.81C268.11 230.13 273.87 254.81 274.58 278.44C274.71 282.76 274.72 287.21 276.31 291.23C278.17 295.95 282.11 299.76 283.26 304.7C284.15 308.49 283.31 312.7 284.94 316.2C287.94 322.72 297.94 323 303.39 318.33C308.84 313.66 310.73 306.13 311.83 299.04C312.93 291.95 313.65 284.48 317.62 278.5C320.08 274.8 323.7 271.83 325.42 267.73C327.82 261.99 326.04 255.19 328.28 249.39C331.29 241.62 340.05 238.21 346.29 232.81Z" fill="black"/>
</g>
<g opacity="0.2">
<path opacity="0.2" d="M151.64 325.45C153.24 326.73 154.87 327.93 156.52 329.11C157.82 330.05 159.133 330.967 160.46 331.86C161.787 332.753 163.12 333.63 164.46 334.49C165.41 335.09 166.37 335.67 167.34 336.24C167.22 335.97 167.09 335.72 166.97 335.44C163.49 327.81 163.29 316.79 170.77 313.01C172.2 312.29 173.77 311.89 175 310.78C178.33 307.63 175.6 301.12 178.93 297.97C180.81 296.22 183.74 296.34 186.06 295.29C190.25 293.36 191.6 288.01 191.27 283.4C190.94 278.79 189.42 274.26 189.94 269.68C190.77 262.75 196.18 255.68 193.07 249.46C189.59 242.46 179.46 243.6 172.32 240.46C162.32 236.08 159.32 223.71 152.77 214.98C146.94 207.17 133.32 198.58 122.96 200.98C115.45 202.68 112.87 207.16 112.1 212.67L111.1 212.52C108.32 212.22 105.1 212.06 103.54 209.76C101.76 207.08 103.54 203.1 101.68 200.48C100.68 199.1 99.0801 198.48 97.6801 197.48C96.2801 196.48 95.1801 194.73 96.0001 193.28C96.6801 192.05 98.4301 191.8 99.3101 190.67C99.6547 190.221 99.8416 189.671 99.8416 189.105C99.8416 188.539 99.6547 187.989 99.3101 187.54C96.4501 184.16 93.3101 191.05 91.7001 192.68C91.2971 193.105 90.8697 193.505 90.4201 193.88C90.3885 194.172 90.3718 194.466 90.3701 194.76C90.3701 195.7 90.3701 196.66 90.3701 197.61C90.3701 198.56 90.3701 199.51 90.3701 200.47C90.3701 201.24 90.3701 202.01 90.3701 202.78C90.3701 203.55 90.3701 204.33 90.3701 205.1C90.3701 205.47 90.3701 205.82 90.3701 206.2C90.9651 223.367 94.3632 240.32 100.43 256.39C103.125 263.53 106.354 270.456 110.09 277.11C111.65 279.99 113.35 282.82 115.09 285.6C117.29 289.03 119.59 292.38 122.09 295.6C124.39 298.7 126.85 301.73 129.42 304.6C132.95 308.626 136.685 312.468 140.61 316.11C144.09 319.37 147.72 322.44 151.5 325.37" fill="black"/>
</g>
<g opacity="0.2">
<path opacity="0.2" d="M100.33 154.44C103.33 151.91 108.39 151.61 110.66 154.76C112.29 157.02 111.92 160.09 111.49 162.85C110.91 166.55 110.34 170.26 109.74 173.96C109.458 175.06 109.51 176.22 109.89 177.29C110.99 179.64 114.89 179.19 116.32 177.09C117.75 174.99 117.65 172.09 117.25 169.56C116.85 167.03 116.32 164.27 117.32 161.87C119.83 155.87 128.71 156.82 133.87 152.94C137.07 150.53 138.5 146.5 140.4 142.94C142.3 139.38 145.48 135.88 149.49 136.06C150.84 136.06 152.17 136.61 153.49 136.56C157.44 136.43 159.75 130.65 156.94 127.85C156.285 127.324 155.697 126.719 155.19 126.05C154.917 125.351 154.893 124.579 155.12 123.864C155.348 123.149 155.813 122.533 156.44 122.12C157.714 121.337 159.158 120.873 160.65 120.77C164.03 120.21 167.41 119.69 170.79 119.16C174.52 118.59 179.3 116.66 178.79 112.93C178.34 109.7 173.96 108.25 173.31 105.05C173.254 104.25 173.11 103.458 172.88 102.69C171.88 100.69 168.78 101.47 166.8 102.57C166.55 101.857 166.138 101.211 165.596 100.684C165.054 100.156 164.397 99.7619 163.677 99.5312C162.957 99.3006 162.193 99.24 161.446 99.3544C160.699 99.4687 159.988 99.7547 159.37 100.19C157.37 101.84 157.11 104.74 156.37 107.19C154.72 113.19 149.94 117.76 145.37 121.99C143.85 123.39 142.12 124.89 140.04 124.99C137.96 125.09 135.79 122.86 136.74 120.99C137.39 119.73 139.19 118.99 139.02 117.61C138.77 115.85 135.71 115.98 135.11 114.3C136.31 109.3 141.99 107.3 146.35 104.64C151.692 101.432 155.77 96.4859 157.9 90.63C158.126 90.1837 158.255 89.6952 158.281 89.1958C158.307 88.6965 158.228 88.1972 158.05 87.73C157.4 86.48 155.72 86.28 154.29 86.28C150.94 86.28 146.76 86.68 145.53 89.81C144.88 91.48 145.36 93.39 144.96 95.14C143.78 100.34 136.65 100.92 132.29 104.02C130.59 105.23 129.29 106.9 127.39 107.83C125.39 108.83 122.98 108.73 120.73 108.9C120.33 108.9 119.93 108.98 119.53 109.03C118.15 110.95 116.817 112.9 115.53 114.88C114.25 116.88 113.02 118.88 111.83 120.88C106.175 130.556 101.576 140.812 98.11 151.47C96.89 155.21 95.8 159.02 94.87 162.88C93.94 166.74 93.13 170.66 92.48 174.62C94.03 171.42 94.73 167.46 95.34 164.62C96.17 160.92 97.4 157 100.33 154.44Z" fill="black"/>
</g>
<g opacity="0.2">
<path opacity="0.2" d="M233 81.07C234.49 79.07 234.06 76.29 235 74.07C236.61 70.31 241.61 68.96 243.35 65.25C244.02 63.82 244.18 62.07 245.35 61.01C246.35 60.13 247.76 59.95 248.8 59.15C251.13 57.37 250.17 53.3 247.69 51.72C241.49 47.72 230.07 52.34 224.69 56.22C217.79 61.22 211.05 67.22 201.88 66.62C199.35 66.46 196.73 65.77 194.36 66.62C191.99 67.47 190.53 71.07 192.57 72.62C193.7 73.46 195.31 73.23 196.57 73.82C198.93 74.91 199.17 78.33 198.02 80.67C196.87 83.01 194.78 84.75 193.42 86.97C192.093 89.1428 191.498 91.6837 191.72 94.22C191.749 95.1001 191.953 95.9657 192.32 96.766C192.688 97.5662 193.211 98.285 193.86 98.88C196.72 101.15 201.05 99.2 203.47 96.47C205.89 93.74 207.56 90.19 210.69 88.32C212.303 87.4662 214.036 86.8627 215.83 86.53L227.83 83.69C229.77 83.18 231.82 82.63 233 81.07Z" fill="black"/>
</g>
<g opacity="0.2">
<path opacity="0.2" d="M406.64 198.32C406.64 196.04 406.57 193.777 406.43 191.53C406.31 189.29 406.14 187.05 405.91 184.83C405.74 183.02 405.54 181.25 405.29 179.47C405.04 177.69 404.76 175.72 404.45 173.87C403.524 168.329 402.292 162.844 400.76 157.44C400.173 155.38 399.543 153.333 398.87 151.3C398.197 149.267 397.49 147.25 396.75 145.25C395.95 143.74 395.1 142.25 394.17 140.82C385.39 126.88 372.62 116 363 102.65C359.84 98.32 357.39 94.74 351.81 93.89C343.55 92.61 339.37 97.32 333.51 89.48C331.93 87.38 329.18 85.48 326.85 86.68C327.45 88.35 328.08 90.03 328.68 91.68C328.835 92.0251 328.903 92.4026 328.88 92.78C328.75 93.96 327 94.29 326 93.64C325.109 92.8311 324.364 91.8736 323.8 90.81C323.113 89.9231 322.25 89.1886 321.264 88.6529C320.279 88.1172 319.193 87.792 318.075 87.698C316.957 87.604 315.832 87.7432 314.771 88.1067C313.71 88.4703 312.735 89.0503 311.91 89.81C311.833 89.0173 311.55 88.2586 311.088 87.6095C310.627 86.9603 310.003 86.4434 309.28 86.11C309.16 86.8648 308.882 87.5857 308.464 88.2256C308.046 88.8655 307.498 89.41 306.855 89.8234C306.212 90.2369 305.489 90.51 304.734 90.6248C303.978 90.7397 303.207 90.6937 302.47 90.49C302 88.96 304.72 88.68 305.68 87.38C306.64 86.08 305.5 84.45 304.37 83.38C301.343 80.7521 297.497 79.2569 293.49 79.15C290.96 79.15 288.23 79.57 286.03 78.27C284.75 77.52 283.85 76.27 282.55 75.54C279.77 73.97 276.29 75.42 273.49 76.97C269.65 79.1 265.7 81.78 264.35 85.97C263 90.16 266 95.75 270.35 95.23C271.45 95.08 272.6 94.55 273.68 94.85C275.23 95.28 275.93 97.08 276.05 98.68C276.17 100.28 276.05 101.96 276.78 103.36C277.51 104.76 279.78 105.47 280.68 104.14C282.74 102.14 282.49 98.91 281.96 96.14C281.43 93.37 280.88 90.23 282.54 87.95C284.2 85.67 288.97 86.4 288.64 89.21C288.44 90.86 286.57 92.06 286.64 93.74C286.71 95.42 288.79 96.34 290.5 96.26C292.21 96.18 293.93 95.59 295.58 96.01C297.23 96.43 298.58 98.59 297.38 99.82C295.3 102.17 289.9 98.14 288.82 101.07C288.52 101.82 288.82 102.67 288.74 103.47C288.54 105.93 285.47 106.83 283.01 107.13C280.55 107.43 277.96 107.65 275.73 106.6C273.5 105.55 271.97 102.6 273.25 100.52C272 99.62 270.1 100.52 269.42 101.92C268.886 103.38 268.788 104.965 269.14 106.48C266.54 105.9 264.21 108.1 262.74 110.28C261.27 112.46 259.81 115.04 257.28 115.81C254.75 116.58 251.22 115.54 249.9 117.81C248.17 120.81 253.17 124.62 251.42 127.6C250.42 129.28 248.02 129.23 246.12 129.75C241.12 131.18 239.33 138.54 242.76 142.47C246.19 146.4 253.05 146.17 256.68 142.47C259.21 139.89 260.23 136.26 262.06 133.16C263.89 130.06 267.34 127.27 270.8 128.27C272.131 128.78 273.348 129.548 274.38 130.53C276.05 131.93 277.73 133.33 279.38 134.76C280.45 135.66 281.63 136.76 281.53 138.19C281.43 139.31 280.53 140.19 280.18 141.19C279.13 144.19 283.51 147.1 286.26 145.45C289.01 143.8 289.32 139.56 287.44 136.96C284.83 133.36 278.95 131.55 279.1 127.1C282.1 124.65 286.84 127.22 288.59 130.7C290.34 134.18 290.39 138.26 291.87 141.84C293.35 145.42 297.48 148.63 300.93 146.84C300.03 143.74 299.15 140.66 298.25 137.58C300.45 135.93 302.98 140.74 305.61 139.93C307.21 139.43 307.41 137.13 306.71 135.58C306.01 134.03 304.78 132.73 304.48 131.05C303.98 127.99 307.39 125.27 310.48 125.77C313.57 126.27 315.76 129.2 316.33 132.22C316.446 133.442 316.715 134.645 317.13 135.8C318.29 138.21 321.27 138.93 323.72 139.93C326.17 140.93 328.72 143.41 327.72 145.87C327.25 146.94 326.12 147.97 326.52 149.07C326.92 150.17 328.35 150.47 328.35 151.52C328.35 152.22 327.6 152.7 326.95 152.98C325.3 153.65 323.49 153.88 321.89 154.65C320.29 155.42 318.84 156.96 318.96 158.71C319.16 161.21 322.14 162.41 323.54 164.49C324.94 166.57 324.69 169.1 325.54 171.35C326.34 173.43 327.99 175.05 329.32 176.83C333.47 182.49 334.45 189.77 336.47 196.48C337.38 199.48 339.03 202.89 342.13 203.48C343.857 203.604 345.584 203.259 347.13 202.48C351.61 200.7 356.26 198.8 359.39 195.17C362.52 191.54 363.6 185.58 360.39 182C360.022 181.488 359.477 181.132 358.86 181C358.016 181.052 357.203 181.336 356.51 181.82C354.23 182.82 351.43 182 349.51 180.32C347.59 178.64 346.51 176.32 345.35 174.09C344.12 171.61 342.9 169.09 341.65 166.6C343.12 165.35 345.48 165.88 347 167.1C348.52 168.32 349.43 170.1 350.66 171.61C354.39 176.27 360.52 178.32 366.45 179.02C367.975 179.099 369.479 179.409 370.91 179.94C375.34 181.94 376.62 188.51 381.3 189.94C382.6 190.34 384.05 190.26 385.3 190.84C387.15 191.71 388.07 193.84 388.63 195.84C389.63 199.52 390 203.4 391.55 206.91C393.1 210.42 396.21 213.59 400.01 213.64C401.204 213.61 402.381 213.344 403.472 212.859C404.563 212.373 405.548 211.677 406.37 210.81C406.57 207.35 406.7 203.9 406.7 200.4C406.69 199.77 406.69 199 406.64 198.32Z" fill="black"/>
</g>
<g opacity="0.2">
<path opacity="0.2" d="M342.62 264C340.26 264.47 339.79 265.85 338.51 267.6C336.84 269.87 334.46 272.15 332.94 274.39C330.36 278.19 332.68 284.12 329.3 287.32C328.536 287.878 327.802 288.476 327.1 289.11C326.487 289.955 326.228 291.007 326.379 292.04C326.531 293.073 327.08 294.006 327.91 294.64C328.777 295.225 329.795 295.546 330.84 295.564C331.886 295.582 332.914 295.295 333.8 294.74C335.568 293.594 336.856 291.84 337.42 289.81C337.86 288.38 338.11 286.75 339.24 285.81C341.18 284.11 344.19 285.37 346.74 285.01C357.59 283.42 352.93 261.94 342.62 264Z" fill="black"/>
</g>
<path d="M168.2 294.41C168.2 294.41 159.87 296.26 155.2 311.68C150.53 327.1 131.76 393.73 134.84 408.85C137.92 423.97 170.45 442.85 178.47 444.98L191.6 408.54L175.3 397.31L181.77 361L168.2 294.41Z" fill="#455A64"/>
<path d="M327.51 477.88C327.03 476.15 318.36 403.88 318.36 403.88L324 287.62L275.63 270.62L268 264.81L219.38 265.38L213.87 273.58L167.87 294.53L183.95 395.22L184.26 461.85L183.82 477.85L327.51 477.88Z" fill="#455A64"/>
<path d="M324 287.62C324 287.62 335.32 289.21 341.93 309.04C348.54 328.87 364.08 400.95 365.08 405.91C366.08 410.87 366.66 431.35 349.4 438.43C332.82 445.23 314.82 438.43 314.82 438.43V401.94L322.1 394.01L319.25 381.14L324 287.62Z" fill="#455A64"/>
<path d="M175.43 397.29C175.43 397.39 173.82 396.59 171.13 395.75C169.558 395.262 167.954 394.884 166.33 394.62C164.344 394.315 162.338 394.164 160.33 394.17C158.318 394.212 156.312 394.41 154.33 394.76C152.712 395.064 151.118 395.482 149.56 396.01C146.89 396.91 145.35 397.74 145.3 397.65C145.63 397.403 145.985 397.192 146.36 397.02C146.78 396.785 147.215 396.574 147.66 396.39C148.18 396.17 148.76 395.88 149.44 395.66C151.002 395.079 152.607 394.621 154.24 394.29C158.259 393.484 162.393 393.436 166.43 394.15C168.074 394.438 169.692 394.856 171.27 395.4C171.95 395.61 172.53 395.88 173.06 396.09C173.507 396.266 173.944 396.466 174.37 396.69C174.743 396.853 175.098 397.054 175.43 397.29V397.29Z" fill="#263238"/>
<path d="M175.66 397.15C175.58 397.22 174.66 396 172.74 394.37C171.642 393.421 170.476 392.556 169.25 391.78C166.231 389.888 162.888 388.569 159.39 387.89C157.964 387.616 156.52 387.449 155.07 387.39C152.59 387.31 151.07 387.53 151.07 387.39C151.416 387.274 151.776 387.203 152.14 387.18C152.563 387.105 152.991 387.059 153.42 387.04C153.91 387.04 154.48 386.96 155.11 386.99C156.585 386.987 158.058 387.117 159.51 387.38C161.289 387.703 163.034 388.195 164.72 388.85C166.398 389.527 168.008 390.361 169.53 391.34C170.765 392.157 171.926 393.08 173 394.1C173.422 394.477 173.823 394.878 174.2 395.3C174.501 395.615 174.781 395.949 175.04 396.3C175.276 396.561 175.484 396.846 175.66 397.15V397.15Z" fill="#263238"/>
<path d="M354.72 396C354.129 395.792 353.551 395.548 352.99 395.27C351.89 394.79 350.29 394.08 348.28 393.34C345.927 392.456 343.506 391.767 341.04 391.28C339.584 390.996 338.111 390.808 336.63 390.72C335.055 390.61 333.471 390.704 331.92 391C326.412 392.069 321.431 394.982 317.8 399.26C316.762 400.592 315.935 402.076 315.35 403.66C315.202 404.265 315.015 404.859 314.79 405.44C314.798 405.278 314.821 405.117 314.86 404.96C314.92 404.65 315 404.19 315.15 403.6C315.682 401.961 316.48 400.421 317.51 399.04C321.127 394.597 326.194 391.57 331.82 390.49C333.417 390.185 335.048 390.091 336.67 390.21C338.169 390.306 339.659 390.507 341.13 390.81C343.617 391.322 346.053 392.055 348.41 393C350.41 393.79 352 394.54 353.08 395.09C353.62 395.36 354.03 395.58 354.31 395.74C354.59 395.9 354.73 395.94 354.72 396Z" fill="#263238"/>
<path d="M344.47 389.16C344.47 389.25 343.1 388.63 340.82 388.16C337.848 387.543 334.776 387.605 331.832 388.343C328.888 389.081 326.149 390.474 323.82 392.42C322.03 393.91 321.14 395.08 321.07 395.02C321.218 394.708 321.414 394.422 321.65 394.17C322.236 393.451 322.882 392.782 323.58 392.17C325.903 390.101 328.693 388.625 331.711 387.869C334.729 387.113 337.885 387.1 340.91 387.83C341.82 388.048 342.709 388.343 343.57 388.71C343.892 388.812 344.195 388.963 344.47 389.16V389.16Z" fill="#263238"/>
<path d="M261.09 315.33C260.948 315.256 260.814 315.169 260.69 315.07L259.56 314.29C258.119 313.329 256.63 312.441 255.1 311.63C253.1 310.58 250.68 309.45 247.9 308.1C244.771 306.64 241.798 304.864 239.03 302.8L239.38 302.74C236.78 307.11 233.9 311.94 230.87 317.05L230.56 317.56L230.39 316.98C230.19 316.28 229.97 315.52 229.76 314.76C226.852 304.731 223.257 294.915 219 285.38C217.37 281.72 216 278.8 215 276.78L213.86 274.46C213.74 274.22 213.65 274.02 213.57 273.85C213.532 273.785 213.505 273.714 213.49 273.64C213.49 273.64 213.54 273.7 213.62 273.83L213.95 274.41C214.24 274.93 214.66 275.69 215.18 276.69C216.18 278.69 217.69 281.58 219.37 285.23C223.76 294.74 227.437 304.564 230.37 314.62C230.59 315.38 230.8 316.14 231 316.84L230.53 316.78C233.58 311.69 236.47 306.86 239.09 302.5L239.22 302.27L239.43 302.43C242.163 304.493 245.098 306.276 248.19 307.75C250.94 309.12 253.39 310.29 255.34 311.38C256.865 312.219 258.338 313.151 259.75 314.17C260.24 314.52 260.6 314.82 260.85 315.01C260.94 315.108 261.021 315.216 261.09 315.33V315.33Z" fill="#263238"/>
<path d="M278.71 272.19C278.811 272.453 278.888 272.724 278.94 273C279.066 273.58 279.246 274.36 279.48 275.34C279.94 277.42 280.59 280.34 281.38 283.95C282.17 287.56 283.13 291.95 284.11 296.74C284.633 299.275 284.967 301.845 285.11 304.43C285.287 307.23 284.91 310.037 284 312.69C283.84 313.19 283.6 313.69 283.41 314.12L283.22 314.59L282.95 314.14C279.814 308.727 277.138 303.061 274.95 297.2L275.34 297.26L266.26 309.38L263.69 312.76L262.99 313.64C262.83 313.84 262.75 313.94 262.74 313.93C262.787 313.809 262.855 313.698 262.94 313.6L263.57 312.68C264.18 311.84 265.01 310.68 266.05 309.22L275 297L275.25 296.66L275.39 297.05C277.623 302.868 280.321 308.496 283.46 313.88H283C283.19 313.43 283.41 312.98 283.57 312.5C284.457 309.911 284.827 307.172 284.66 304.44C284.509 301.879 284.175 299.333 283.66 296.82C282.66 292.01 281.79 287.68 281.04 284.02L279.3 275.37C279.11 274.37 278.97 273.6 278.86 273.01C278.793 272.74 278.743 272.466 278.71 272.19V272.19Z" fill="#263238"/>
<path d="M348.72 334.05C348.72 334.05 348.54 334.05 348.2 334.05H346.69L340.89 333.94C335.89 333.84 328.56 333.7 319.54 333.6C301.54 333.36 276.62 333.28 249.12 333.22C221.62 333.16 196.7 333.02 178.67 332.68C169.67 332.54 162.37 332.34 157.33 332.18L151.53 331.97L150 331.9C149.83 331.911 149.66 331.911 149.49 331.9H150H151.51L157.31 332.01C162.31 332.11 169.64 332.24 178.66 332.35C196.66 332.58 221.58 332.67 249.1 332.73C276.62 332.79 301.5 332.93 319.53 333.26C328.53 333.41 335.84 333.6 340.87 333.77L346.68 333.98L348.18 334.04L348.72 334.05Z" fill="white"/>
<path d="M178.61 400C178.188 400.323 177.74 400.611 177.27 400.86C176.83 401.12 176.27 401.44 175.7 401.86C175.13 402.28 174.39 402.69 173.7 403.24C171.955 404.473 170.286 405.808 168.7 407.24C164.805 410.736 161.437 414.778 158.7 419.24C157.588 421.055 156.586 422.935 155.7 424.87C155.29 425.68 154.99 426.45 154.7 427.11C154.41 427.77 154.18 428.36 154.01 428.84C153.845 429.346 153.638 429.838 153.39 430.31C153.489 429.786 153.629 429.271 153.81 428.77C153.96 428.28 154.15 427.68 154.42 427.01C154.69 426.34 154.96 425.54 155.35 424.71C156.214 422.744 157.199 420.834 158.3 418.99C159.673 416.741 161.204 414.593 162.88 412.56C164.584 410.552 166.426 408.664 168.39 406.91C170.011 405.5 171.718 404.19 173.5 402.99C174.25 402.46 174.97 402.05 175.59 401.67C176.21 401.29 176.76 400.99 177.22 400.76C177.662 400.47 178.127 400.216 178.61 400V400Z" fill="white"/>
<path d="M321.89 440.77C321.89 440.92 291.35 440.69 253.7 440.26C216.05 439.83 185.5 439.37 185.5 439.26C185.5 439.15 216.03 439.34 253.7 439.77C291.37 440.2 321.89 440.63 321.89 440.77Z" fill="white"/>
<path d="M361.64 424C361.59 424 361.53 423.18 361.32 421.72C361.015 419.657 360.502 417.63 359.79 415.67C358.736 412.763 357.26 410.027 355.41 407.55C350.887 401.389 344.132 397.243 336.59 396C333.545 395.467 330.438 395.39 327.37 395.77C325.299 396.02 323.259 396.479 321.28 397.14C319.88 397.62 319.12 397.94 319.1 397.89C319.266 397.781 319.444 397.69 319.63 397.62C320.145 397.369 320.672 397.145 321.21 396.95C323.183 396.211 325.232 395.694 327.32 395.41C332.697 394.584 338.198 395.253 343.219 397.345C348.241 399.437 352.59 402.871 355.79 407.27C357.649 409.79 359.112 412.579 360.13 415.54C360.826 417.53 361.293 419.594 361.52 421.69C361.63 422.43 361.61 423.01 361.64 423.4C361.666 423.599 361.666 423.801 361.64 424Z" fill="white"/>
<path d="M231.23 285.35C230.184 287.117 228.986 288.79 227.65 290.35C226.451 292.011 225.113 293.566 223.65 295C224.696 293.233 225.894 291.56 227.23 290C228.432 288.342 229.77 286.787 231.23 285.35V285.35Z" fill="white"/>
<path d="M271.46 284.71C272.147 284.069 272.897 283.499 273.7 283.01L273.82 282.92L273.95 283.03C274.86 283.85 276.02 284.91 277.27 286.08C278.74 287.47 280.05 288.74 280.98 289.68C281.522 290.155 282.002 290.696 282.41 291.29C281.801 290.909 281.237 290.459 280.73 289.95C279.73 289.08 278.38 287.85 276.91 286.46C275.67 285.29 274.54 284.2 273.67 283.33H273.92C273.154 283.881 272.329 284.344 271.46 284.71V284.71Z" fill="white"/>
<path d="M174.91 328.19C174.97 328.386 175.014 328.587 175.04 328.79C175.11 329.25 175.21 329.79 175.32 330.54C175.55 332.13 175.87 334.31 176.32 336.98L179.25 358.26C181.37 374.26 182.87 385.53 183.25 388.26C183.256 388.276 183.256 388.294 183.25 388.31C183.25 388.31 183.25 388.31 183.25 388.31C183.244 388.287 183.244 388.263 183.25 388.24C183.202 388.093 183.165 387.943 183.14 387.79C183.05 387.4 182.94 386.79 182.81 386.05C182.55 384.53 182.21 382.33 181.81 379.62C181 374.18 179.94 366.62 178.81 358.34C177.68 350.06 176.7 342.5 176.02 337.04C175.7 334.36 175.43 332.17 175.24 330.58C175.17 329.86 175.1 329.28 175.06 328.82C174.982 328.618 174.932 328.406 174.91 328.19V328.19Z" fill="#263238"/>
<path d="M275.1 477.6C275.068 477.462 275.052 477.321 275.05 477.18C275.05 476.88 274.99 476.48 274.95 475.96C274.88 474.86 274.78 473.28 274.65 471.27C274.4 467.16 274.03 461.27 273.57 453.99C272.63 439.41 271.19 419.27 269.26 397.05C267.33 374.83 265.26 354.74 263.64 340.22C262.83 332.97 262.17 327.1 261.72 323.02C261.49 321.02 261.32 319.43 261.2 318.34C261.15 317.82 261.11 317.42 261.08 317.12C261.066 316.98 261.066 316.84 261.08 316.7C261.121 316.834 261.148 316.971 261.16 317.11C261.16 317.41 261.26 317.81 261.33 318.33C261.48 319.42 261.68 320.99 261.95 322.99C262.47 327.04 263.19 332.92 264.04 340.17C265.73 354.69 267.86 374.78 269.81 397.01C271.76 419.24 273.12 439.37 273.97 454.01C274.39 461.3 274.71 467.21 274.89 471.29C274.97 473.29 275.04 474.89 275.09 476C275.09 476.52 275.09 476.92 275.09 477.22C275.09 477.52 275.1 477.6 275.1 477.6Z" fill="#263238"/>
<path d="M320.25 317.35C320.39 317.35 320.25 335.1 320.03 356.99C319.81 378.88 319.43 396.64 319.28 396.63C319.13 396.62 319.28 378.88 319.51 356.99C319.74 335.1 320.1 317.34 320.25 317.35Z" fill="#263238"/>
<path d="M219.43 269.34L237.91 294.43L261.77 313.6L272.53 294.87L270.69 277.37L269.16 262.7C269.16 262.7 288.34 257.9 286.81 238.42C286.07 229.01 282.97 209.77 279.97 192.42C278.412 183.403 273.515 175.303 266.255 169.733C258.995 164.162 249.903 161.53 240.79 162.36L238.92 162.53C218.78 165.53 210.1 184.34 213.68 204.39L219.43 269.39" fill="#FFBE9D"/>
<path d="M269.18 262.68C269.18 262.68 256.97 264.8 243.18 257.78C243.18 257.78 250.45 271.24 269.7 267.72L269.18 262.68Z" fill="#EB996E"/>
<path d="M274.8 208.3C274.86 209.015 274.642 209.726 274.191 210.285C273.74 210.844 273.092 211.207 272.38 211.3C272.029 211.361 271.669 211.351 271.321 211.27C270.974 211.189 270.646 211.04 270.358 210.83C270.07 210.62 269.827 210.354 269.643 210.048C269.46 209.743 269.34 209.403 269.29 209.05C269.227 208.334 269.444 207.622 269.896 207.063C270.347 206.503 270.997 206.14 271.71 206.05C272.061 205.989 272.421 205.999 272.768 206.08C273.116 206.161 273.443 206.31 273.732 206.52C274.02 206.73 274.263 206.996 274.446 207.302C274.63 207.607 274.75 207.947 274.8 208.3V208.3Z" fill="#263238"/>
<path d="M276.85 201.23C276.54 201.62 274.29 200.23 271.3 200.54C268.31 200.85 266.3 202.54 265.9 202.18C265.73 202.03 266.02 201.34 266.9 200.56C268.11 199.545 269.606 198.93 271.18 198.8C272.735 198.652 274.297 199.002 275.64 199.8C276.63 200.43 277 201.05 276.85 201.23Z" fill="#263238"/>
<path d="M246.19 211C246.259 211.724 246.043 212.446 245.59 213.015C245.137 213.584 244.481 213.955 243.76 214.05C243.409 214.11 243.049 214.099 242.703 214.017C242.356 213.936 242.029 213.786 241.741 213.576C241.453 213.367 241.21 213.101 241.026 212.796C240.842 212.491 240.721 212.153 240.67 211.8C240.596 211.076 240.808 210.353 241.26 209.783C241.712 209.213 242.369 208.843 243.09 208.75C243.442 208.692 243.801 208.704 244.148 208.786C244.495 208.867 244.822 209.017 245.111 209.227C245.399 209.436 245.643 209.701 245.828 210.005C246.014 210.309 246.137 210.648 246.19 211Z" fill="#263238"/>
<path d="M247 203.1C246.73 203.52 244.35 202.41 241.41 203.01C238.47 203.61 236.61 205.52 236.21 205.23C236.03 205.1 236.21 204.39 237.04 203.51C238.136 202.371 239.558 201.599 241.11 201.3C242.639 200.985 244.229 201.163 245.65 201.81C246.67 202.32 247.11 202.91 247 203.1Z" fill="#263238"/>
<path d="M260.18 226.7C260.18 226.53 261.98 226.04 264.96 225.38C265.71 225.23 266.42 225.01 266.5 224.48C266.495 223.685 266.247 222.911 265.79 222.26L263 216.66C259.11 208.66 256.22 202.06 256.55 201.91C256.88 201.76 260.28 208.11 264.17 216.1L266.87 221.75C267.438 222.641 267.675 223.702 267.54 224.75C267.453 225.03 267.304 225.286 267.103 225.5C266.902 225.713 266.655 225.877 266.38 225.98C265.97 226.141 265.539 226.242 265.1 226.28C262.09 226.68 260.21 226.87 260.18 226.7Z" fill="#263238"/>
<path d="M246.21 190.16C245.99 191 242.97 190.89 239.5 191.63C236.03 192.37 233.28 193.63 232.75 192.9C232.51 192.57 232.94 191.76 234.01 190.9C235.449 189.795 237.121 189.032 238.898 188.67C240.676 188.308 242.513 188.356 244.27 188.81C245.6 189.19 246.31 189.77 246.21 190.16Z" fill="#263238"/>
<path d="M275.66 195.41C275.2 196.14 273.07 195.62 270.59 195.81C268.11 196 266.06 196.69 265.51 196.02C265.27 195.69 265.51 195.02 266.4 194.26C267.559 193.376 268.955 192.858 270.41 192.771C271.865 192.683 273.313 193.031 274.57 193.77C275.51 194.39 275.86 195.06 275.66 195.41Z" fill="#263238"/>
<path d="M216.58 218.62C216.24 218.51 202.85 215.88 204.49 229.15C206.13 242.42 219.1 238.03 219.08 237.65C219.06 237.27 216.58 218.62 216.58 218.62Z" fill="#FFBE9D"/>
<path d="M214.41 233.12C214.34 233.12 214.2 233.31 213.83 233.54C213.31 233.84 212.694 233.93 212.11 233.79C210.64 233.45 209.19 231.37 208.83 228.98C208.658 227.85 208.74 226.695 209.07 225.6C209.141 225.168 209.316 224.76 209.581 224.411C209.846 224.062 210.193 223.784 210.59 223.6C210.846 223.498 211.13 223.488 211.393 223.572C211.655 223.656 211.881 223.828 212.03 224.06C212.25 224.41 212.2 224.69 212.27 224.7C212.34 224.71 212.53 224.45 212.36 223.91C212.241 223.591 212.019 223.32 211.73 223.14C211.33 222.91 210.857 222.846 210.41 222.96C209.879 223.138 209.403 223.448 209.025 223.861C208.647 224.274 208.38 224.776 208.25 225.32C207.83 226.537 207.713 227.838 207.91 229.11C208.32 231.78 210 234.11 211.98 234.43C212.35 234.49 212.728 234.465 213.086 234.357C213.445 234.25 213.774 234.063 214.05 233.81C214.42 233.45 214.46 233.14 214.41 233.12Z" fill="#EB996E"/>
<path d="M280.06 169.49C279.24 166.96 277.11 164.67 274.46 164.49C274.895 163.187 274.876 161.775 274.405 160.484C273.935 159.193 273.041 158.1 271.87 157.382C270.698 156.664 269.318 156.364 267.955 156.531C266.591 156.697 265.324 157.321 264.36 158.3C264.15 154.23 258.87 151.42 255.36 153.52C255.332 152.325 254.897 151.175 254.127 150.26C253.357 149.345 252.299 148.719 251.126 148.486C249.953 148.253 248.736 148.427 247.675 148.978C246.615 149.53 245.773 150.426 245.29 151.52C242.07 147 234.22 147.07 231.09 151.65C228.321 151.034 225.423 151.454 222.942 152.831C220.462 154.207 218.572 156.445 217.63 159.12C215.464 159.472 213.451 160.461 211.849 161.96C210.246 163.46 209.126 165.402 208.63 167.54C207.24 167.787 205.938 168.394 204.856 169.301C203.774 170.208 202.948 171.384 202.462 172.709C201.977 174.035 201.847 175.466 202.087 176.857C202.327 178.249 202.928 179.553 203.83 180.64C200.62 182.57 200.4 187.96 203.46 190.13C202.511 190.707 201.745 191.541 201.252 192.537C200.759 193.532 200.559 194.647 200.675 195.752C200.792 196.856 201.22 197.905 201.909 198.776C202.599 199.647 203.522 200.304 204.57 200.67C202.64 201.09 202.09 203.75 202.84 205.58C203.59 207.41 205.15 208.8 206.09 210.58C206.87 212.02 207.2 213.66 207.88 215.14C208.54 216.528 209.494 217.757 210.675 218.741C211.855 219.725 213.236 220.441 214.72 220.84L214.41 221.27C214.22 223 216.7 223.96 218.24 223.14C219.78 222.32 220.55 220.58 221.34 219.02C222.4 217.319 223.18 215.459 223.65 213.51C223.96 211.51 223.2 209.21 221.35 208.45C223.58 207.45 224.85 205 225.07 202.58C225.142 200.145 224.78 197.718 224 195.41C223.053 191.95 222.107 188.493 221.16 185.04C223.57 184.726 225.849 183.762 227.752 182.25C229.655 180.738 231.11 178.737 231.96 176.46C232.9 176.988 233.94 177.311 235.013 177.408C236.086 177.506 237.168 177.375 238.187 177.024C239.206 176.674 240.139 176.112 240.926 175.375C241.712 174.639 242.334 173.744 242.75 172.75C243.839 175.018 245.743 176.793 248.082 177.719C250.421 178.646 253.023 178.657 255.37 177.75C255.09 180.55 260.26 182.66 263.04 183.14C265.82 183.62 269.04 181.4 269.04 181.4C269.04 181.4 273.95 183.73 276.41 182.49C278.87 181.25 281.9 177.75 280.02 175.26C280.488 173.367 280.501 171.39 280.06 169.49V169.49Z" fill="#263238"/>
<path d="M202.81 190.21C202.93 190.16 203.1 191.11 204.28 191.81C204.612 192.006 204.983 192.125 205.367 192.16C205.751 192.195 206.138 192.143 206.5 192.01C206.942 191.833 207.33 191.541 207.623 191.165C207.917 190.789 208.105 190.342 208.17 189.87L208.26 189.06L208.93 189.55C209.493 189.961 210.168 190.193 210.865 190.215C211.562 190.237 212.25 190.048 212.838 189.673C213.426 189.299 213.888 188.756 214.163 188.115C214.438 187.474 214.514 186.765 214.38 186.08L214.22 185.3L214.97 185.54C215.774 185.791 216.641 185.742 217.412 185.401C218.182 185.061 218.803 184.453 219.16 183.69C219.402 183.045 219.57 182.374 219.66 181.69C219.72 181.69 220.14 182.5 219.66 183.91C219.35 184.74 218.773 185.443 218.02 185.91C217.525 186.213 216.974 186.412 216.399 186.495C215.825 186.577 215.24 186.542 214.68 186.39L215.26 185.85C215.458 186.726 215.38 187.641 215.039 188.471C214.697 189.301 214.107 190.005 213.35 190.488C212.593 190.97 211.706 191.207 210.809 191.167C209.912 191.126 209.05 190.809 208.34 190.26L209.09 189.94C208.992 190.575 208.72 191.17 208.306 191.661C207.891 192.151 207.349 192.518 206.74 192.72C206.271 192.867 205.775 192.902 205.29 192.822C204.805 192.742 204.346 192.55 203.95 192.26C202.66 191.29 202.73 190.17 202.81 190.21Z" fill="#455A64"/>
<path d="M202 203.14C202.475 203.331 202.967 203.475 203.47 203.57C204.118 203.643 204.772 203.518 205.347 203.21C205.922 202.903 206.39 202.429 206.69 201.85L206.91 201.36L207.31 201.72C207.785 202.119 208.355 202.388 208.965 202.5C209.575 202.612 210.204 202.564 210.79 202.36C211.462 202.099 212.035 201.635 212.431 201.033C212.827 200.431 213.026 199.72 213 199V198.12L213.79 198.54C213.986 198.648 214.199 198.722 214.42 198.76C214.92 198.864 215.439 198.81 215.907 198.606C216.374 198.402 216.767 198.057 217.03 197.62C217.252 197.207 217.358 196.741 217.335 196.272C217.312 195.803 217.162 195.35 216.9 194.96L216.33 194.18L217.28 194.24C218.372 194.309 219.448 193.951 220.28 193.24C220.93 192.667 221.39 191.91 221.6 191.07C221.728 190.293 221.758 189.504 221.69 188.72C221.74 188.72 222.33 189.52 222.12 191.18C221.972 192.171 221.505 193.088 220.79 193.79C219.833 194.697 218.558 195.189 217.24 195.16L217.62 194.44C218.005 194.965 218.234 195.587 218.282 196.236C218.329 196.885 218.194 197.534 217.89 198.11C217.533 198.738 216.987 199.236 216.33 199.534C215.672 199.832 214.937 199.915 214.23 199.77C213.906 199.704 213.593 199.593 213.3 199.44L214 199C214.03 199.928 213.765 200.842 213.242 201.61C212.719 202.377 211.965 202.959 211.09 203.27C210.348 203.507 209.556 203.54 208.797 203.364C208.039 203.188 207.342 202.81 206.78 202.27L207.4 202.15C207.197 202.554 206.915 202.915 206.572 203.21C206.229 203.505 205.83 203.729 205.4 203.87C204.757 204.092 204.065 204.134 203.4 203.99C202.27 203.74 201.91 203.16 202 203.14Z" fill="#455A64"/>
<path d="M253.6 153.32C253.119 152.989 252.584 152.742 252.02 152.59C251.363 152.457 250.68 152.56 250.09 152.88C249.708 153.094 249.38 153.391 249.129 153.749C248.878 154.108 248.711 154.518 248.64 154.95L248.53 155.73L248.07 155.08C247.574 154.422 246.92 153.9 246.168 153.563C245.416 153.225 244.591 153.083 243.77 153.15C242.781 153.262 241.853 153.685 241.118 154.357C240.384 155.028 239.88 155.915 239.68 156.89L239.5 157.79L238.88 157.11C238.262 156.476 237.511 155.986 236.681 155.677C235.851 155.367 234.963 155.246 234.08 155.32C233.137 155.418 232.233 155.75 231.45 156.286C230.668 156.822 230.032 157.545 229.6 158.39C229.233 159.077 229.015 159.833 228.96 160.61L228.91 161.16L228.38 161.08C227.117 160.905 225.831 161.158 224.729 161.8C223.627 162.442 222.771 163.435 222.3 164.62C221.935 165.678 221.883 166.819 222.149 167.906C222.415 168.993 222.988 169.98 223.8 170.75L224.36 171.25L223.64 171.45C222.234 171.828 221.006 172.69 220.174 173.885C219.342 175.08 218.958 176.53 219.09 177.98C219.235 179.084 219.573 180.154 220.09 181.14C220.09 181.14 219.83 180.95 219.51 180.45C219.058 179.711 218.762 178.887 218.64 178.03C218.436 176.658 218.674 175.257 219.32 174.03C219.75 173.223 220.335 172.508 221.042 171.928C221.749 171.348 222.564 170.914 223.44 170.65L223.28 171.35C222.213 170.431 221.475 169.189 221.18 167.812C220.884 166.435 221.046 164.999 221.642 163.723C222.237 162.447 223.234 161.4 224.479 160.743C225.724 160.085 227.15 159.852 228.54 160.08L227.97 160.54C228.085 158.966 228.749 157.483 229.845 156.348C230.941 155.213 232.401 154.499 233.97 154.33C235 154.24 236.036 154.387 237 154.76C237.963 155.133 238.829 155.721 239.53 156.48L238.74 156.7C238.947 155.649 239.461 154.683 240.216 153.923C240.971 153.163 241.934 152.643 242.984 152.429C244.034 152.215 245.123 152.317 246.116 152.721C247.108 153.125 247.958 153.814 248.56 154.7L247.99 154.83C248.089 154.313 248.307 153.827 248.627 153.409C248.946 152.99 249.358 152.652 249.83 152.42C250.39 152.151 251.017 152.054 251.631 152.143C252.246 152.232 252.82 152.503 253.28 152.92C253.54 153.16 253.62 153.31 253.6 153.32Z" fill="#455A64"/>
<path d="M285.61 227.81C285.067 227.514 284.466 227.342 283.849 227.306C283.232 227.269 282.615 227.37 282.041 227.6C281.468 227.831 280.953 228.185 280.532 228.638C280.112 229.091 279.797 229.631 279.61 230.22C278.991 229.463 278.171 228.895 277.244 228.582C276.318 228.269 275.322 228.223 274.37 228.449C273.419 228.676 272.55 229.165 271.864 229.862C271.178 230.559 270.701 231.435 270.49 232.39C269.49 229.61 264.93 229.13 263.32 231.62C262.907 231.054 262.326 230.632 261.661 230.413C260.995 230.195 260.278 230.19 259.61 230.4C259.651 229.74 259.493 229.083 259.155 228.515C258.817 227.947 258.316 227.493 257.717 227.214C257.118 226.934 256.449 226.841 255.797 226.948C255.144 227.054 254.539 227.355 254.06 227.81C253.617 227.192 253.049 226.674 252.391 226.292C251.734 225.91 251.003 225.672 250.247 225.593C249.49 225.515 248.726 225.598 248.004 225.837C247.283 226.076 246.62 226.466 246.06 226.98C245.814 226.383 245.383 225.881 244.829 225.549C244.276 225.216 243.63 225.071 242.988 225.135C242.345 225.199 241.741 225.469 241.263 225.904C240.786 226.339 240.463 226.916 240.34 227.55C239.639 226.784 238.712 226.262 237.693 226.062C236.674 225.862 235.618 225.995 234.68 226.44C234.626 225.966 234.467 225.51 234.216 225.105C233.964 224.7 233.625 224.355 233.225 224.097C232.824 223.839 232.37 223.673 231.897 223.611C231.424 223.549 230.944 223.593 230.49 223.74C230.85 222.06 228.39 221.47 227.08 220.37C226.5 219.87 226.08 219.18 225.47 218.73C224.86 218.28 223.81 218.25 223.47 218.93C223.584 218.257 223.444 217.566 223.078 216.989C222.712 216.413 222.145 215.993 221.487 215.811C220.83 215.628 220.128 215.695 219.517 216C218.906 216.305 218.43 216.825 218.18 217.46C217.965 218.231 217.861 219.029 217.87 219.83C217.66 222.41 216.42 225.53 218.38 227.22C218.73 227.51 219.17 227.75 219.33 228.17C219.62 228.9 218.94 229.65 218.93 230.43C218.92 231.21 219.8 231.97 220.22 232.78C220.84 233.96 220.42 235.4 220.41 236.78C220.4 238.16 221.26 239.78 222.59 239.56C222.177 240.577 222.135 241.706 222.469 242.751C222.804 243.796 223.494 244.691 224.42 245.28C224.223 245.86 224.145 246.474 224.19 247.084C224.235 247.695 224.403 248.291 224.683 248.835C224.963 249.38 225.349 249.863 225.819 250.256C226.29 250.648 226.834 250.942 227.42 251.12C227.045 251.551 226.838 252.104 226.838 252.675C226.838 253.246 227.045 253.799 227.42 254.23C228.209 255.058 229.192 255.677 230.28 256.03C229.879 256.362 229.624 256.837 229.568 257.354C229.512 257.871 229.66 258.39 229.98 258.8C230.686 259.581 231.646 260.088 232.69 260.23C233.14 260.272 233.564 260.466 233.89 260.78C234.41 261.44 233.83 262.42 234.01 263.24C234.29 264.5 236.1 264.76 236.71 265.89C237.32 267.02 236.71 268.4 237.6 269.14C238.18 269.61 239.03 269.47 239.74 269.67C241.02 270.03 241.66 271.4 242.52 272.41C244.15 274.32 246.74 275.03 249.2 275.49C250.45 275.73 251.71 275.92 252.98 276.08C255.5 276.39 258.04 276.53 260.57 276.68C261.83 276.75 263.37 276.68 263.96 275.57C264.456 276.031 265.054 276.371 265.704 276.561C266.355 276.751 267.041 276.787 267.708 276.665C268.375 276.544 269.004 276.269 269.546 275.862C270.088 275.455 270.527 274.927 270.83 274.32C273.12 274.78 275.4 273.69 277.48 272.63L279.63 271.53C281.77 270.43 284.15 269.05 284.63 266.7C285.323 266.512 285.966 266.173 286.512 265.706C287.058 265.24 287.494 264.658 287.787 264.002C288.081 263.347 288.226 262.634 288.211 261.916C288.195 261.198 288.021 260.492 287.7 259.85C288.7 260.08 289.63 259 289.7 257.96C289.679 256.915 289.482 255.88 289.12 254.9C288.12 250.77 290.05 246.38 289.22 242.21C288.63 239.29 286.7 236.49 287.36 233.59C287.569 233.013 287.674 232.404 287.67 231.79C287.59 231.18 286.99 230.58 286.41 230.79C286.532 230.354 286.543 229.895 286.444 229.453C286.344 229.011 286.136 228.602 285.838 228.26C285.541 227.919 285.163 227.657 284.739 227.498C284.315 227.339 283.858 227.288 283.41 227.35" fill="#263238"/>
<path d="M251.57 229.57C252.05 229.49 252.35 232.74 255.34 234.79C258.33 236.84 261.75 236.17 261.82 236.62C261.88 236.82 261.1 237.32 259.65 237.49C257.752 237.69 255.844 237.216 254.26 236.15C252.729 235.126 251.654 233.549 251.26 231.75C251.06 230.4 251.35 229.57 251.57 229.57Z" fill="white"/>
<path d="M234 253.65C233.17 251.452 232.606 249.162 232.32 246.83C232.212 244.484 232.39 242.133 232.85 239.83C232.505 240.452 232.268 241.128 232.15 241.83C231.772 243.488 231.654 245.195 231.8 246.89C231.939 248.584 232.337 250.247 232.98 251.82C233.213 252.483 233.558 253.102 234 253.65V253.65Z" fill="#455A64"/>
<path d="M230.62 249.13C230.314 248.669 230.033 248.192 229.78 247.7C229.327 246.449 229.136 245.118 229.22 243.79C229.22 240.62 229.98 238.13 229.83 238.08C229.03 239.871 228.64 241.819 228.69 243.78C228.597 245.182 228.859 246.585 229.45 247.86C230 248.83 230.59 249.18 230.62 249.13Z" fill="#455A64"/>
<path d="M227.18 246.64C225.268 243.067 224.843 238.884 226 235C225.639 235.493 225.393 236.06 225.28 236.66C224.892 238.075 224.774 239.551 224.93 241.01C225.081 242.471 225.502 243.892 226.17 245.2C226.407 245.743 226.75 246.233 227.18 246.64V246.64Z" fill="#455A64"/>
<path d="M282.65 263.2C282.65 263.26 283.52 262.98 284.43 261.9C285.499 260.461 286.187 258.776 286.43 257C286.759 255.248 286.8 253.455 286.55 251.69C286.489 250.956 286.299 250.238 285.99 249.57C286.297 252.006 286.27 254.472 285.91 256.9C285.664 258.605 285.05 260.236 284.11 261.68C283.669 262.228 283.18 262.737 282.65 263.2V263.2Z" fill="#455A64"/>
<path d="M279.76 262.67C280.323 262.404 280.816 262.01 281.2 261.52C282.209 260.416 282.97 259.108 283.431 257.685C283.891 256.262 284.041 254.756 283.87 253.27C283.837 252.651 283.67 252.047 283.38 251.5C283.377 252.102 283.417 252.704 283.5 253.3C283.632 256.191 282.716 259.032 280.92 261.3C280.504 261.732 280.117 262.189 279.76 262.67V262.67Z" fill="#455A64"/>
<path d="M266.09 237.09C266.279 236.698 266.386 236.271 266.403 235.835C266.42 235.4 266.348 234.966 266.19 234.56C265.82 233.14 264.93 232.31 264.84 232.41C264.75 232.51 265.35 233.41 265.68 234.69C266.01 235.97 265.94 237.07 266.09 237.09Z" fill="#455A64"/>
<path d="M262.67 236.5C262.76 236.6 263.55 235.8 263.67 234.5C263.753 234.117 263.741 233.719 263.637 233.341C263.532 232.963 263.338 232.616 263.07 232.33C262.93 232.4 263.27 233.33 263.15 234.45C263.03 235.57 262.54 236.41 262.67 236.5Z" fill="#455A64"/>
<path d="M259.22 235.67C259.32 235.76 260.04 235.02 260.29 233.81C260.54 232.6 260.19 231.64 260.06 231.69C259.93 231.74 260.01 232.63 259.77 233.69C259.53 234.75 259.09 235.58 259.22 235.67Z" fill="#455A64"/>
<path d="M256.62 233.06C256.75 233.12 257.13 232.63 257.33 231.91C257.53 231.19 257.46 230.57 257.33 230.56C257.2 230.55 257.02 231.1 256.83 231.76C256.64 232.42 256.49 233 256.62 233.06Z" fill="#455A64"/>
<path d="M254.45 232.09C254.59 232.15 255 231.47 255.71 230.84C256.42 230.21 257.13 229.84 257.09 229.72C257.05 229.6 256.16 229.72 255.36 230.45C254.56 231.18 254.31 232 254.45 232.09Z" fill="#455A64"/>
<path d="M251.17 229.87C251.28 229.98 252.17 229.2 253.43 228.78C254.69 228.36 255.87 228.46 255.9 228.31C255.487 228.124 255.038 228.027 254.585 228.027C254.132 228.027 253.683 228.124 253.27 228.31C252.831 228.41 252.418 228.601 252.056 228.869C251.695 229.138 251.393 229.479 251.17 229.87V229.87Z" fill="#455A64"/>
<path d="M265.82 267.07C266.361 266.529 266.801 265.896 267.12 265.2C268.827 261.876 269.185 258.022 268.12 254.44C267.941 253.695 267.625 252.99 267.19 252.36C267.11 252.36 267.44 253.2 267.76 254.54C268.583 258.052 268.232 261.737 266.76 265.03C266.22 266.29 265.75 267 265.82 267.07Z" fill="#455A64"/>
<path d="M262.38 267.07C263.705 265.691 264.592 263.952 264.93 262.07C265.436 260.213 265.366 258.246 264.73 256.43C264.837 258.279 264.73 260.135 264.41 261.96C263.923 263.733 263.242 265.446 262.38 267.07Z" fill="#455A64"/>
<path d="M256.29 266.26C256.29 266.32 256.87 266.09 257.63 265.51C258.606 264.731 259.413 263.762 260 262.66C260.599 261.564 260.964 260.355 261.07 259.11C261.159 258.595 261.121 258.067 260.96 257.57C260.749 259.249 260.27 260.883 259.54 262.41C258.667 263.857 257.57 265.156 256.29 266.26V266.26Z" fill="#455A64"/>
<path d="M260.91 398.46C260.91 398.46 234.06 396.46 219.36 400.1L218.69 405.67C218.69 405.67 207.33 403.1 207.17 413.12C207.01 423.14 207.17 435 220.36 437.51V443.7C220.36 443.7 227 448 241 447.14C255 446.28 262.29 444.3 262.29 444.3L260.91 398.46ZM220.46 429.94C220.492 430.739 220.26 431.526 219.8 432.18C219.481 432.491 219.082 432.707 218.648 432.806C218.214 432.905 217.762 432.882 217.34 432.74C216.502 432.442 215.745 431.953 215.13 431.31C213.209 429.473 211.705 427.244 210.72 424.775C209.735 422.307 209.291 419.655 209.42 417C209.446 415.054 210.037 413.157 211.12 411.54C211.673 410.752 212.432 410.131 213.313 409.743C214.194 409.355 215.165 409.216 216.12 409.34C218.01 409.72 219.94 410.55 220 413.34L220.13 414.34C220.656 419.523 220.766 424.74 220.46 429.94V429.94Z" fill="#407BFF"/>
<path d="M183.7 412C180.99 413.962 179.021 416.781 178.11 420C176.94 425 175.11 437.37 178.94 440C182.77 442.63 202.83 454.19 207 454.69C211.17 455.19 223.7 454.36 225.21 453.52C226.72 452.68 227.63 449.99 227.63 449.99C228.92 449.53 231.81 446.85 231.39 446.51C230.97 446.17 228.21 438.32 224.39 436.51C220.57 434.7 210.19 429.33 209.39 427.51C208.59 425.69 220.69 426.82 220.69 426.82C220.765 423.317 220.665 419.813 220.39 416.32C220.39 416.32 207.55 413.64 207.22 413.14C206.89 412.64 210.89 406.63 212.4 405.79C213.91 404.95 218.74 405.69 218.74 405.69L219.41 400.12C217.852 399.236 216.239 398.454 214.58 397.78C213.844 397.455 213.043 397.302 212.239 397.334C211.435 397.365 210.649 397.579 209.94 397.96L183.7 412Z" fill="#FFBE9D"/>
<path d="M230 443.64C229.604 443.682 229.206 443.682 228.81 443.64L225.58 443.37L220.81 442.89L217.99 442.59C216.97 442.482 215.965 442.267 214.99 441.95C214.48 441.8 213.99 441.65 213.5 441.46L212.12 440.89L209.49 439.8L205 437.89L202 436.59C201.63 436.445 201.275 436.264 200.94 436.05C201.333 436.117 201.716 436.235 202.08 436.4L205.08 437.55L209.54 439.32L212.17 440.37L213.56 440.94C214.02 441.11 214.56 441.27 215.01 441.41C215.983 441.712 216.985 441.909 218 442L220.82 442.33L225.59 442.92L228.8 443.36C229.21 443.405 229.613 443.499 230 443.64V443.64Z" fill="#EB996E"/>
<path d="M227.63 450C227.249 450.115 226.857 450.192 226.46 450.23C225.71 450.35 224.61 450.5 223.24 450.63C219.671 451.038 216.061 450.91 212.53 450.25C208.998 449.592 205.611 448.308 202.53 446.46C201.605 445.868 200.732 445.199 199.92 444.46C199.613 444.208 199.337 443.919 199.1 443.6C199.16 443.52 200.38 444.72 202.72 446.11C205.814 447.845 209.172 449.058 212.66 449.7C216.147 450.348 219.705 450.53 223.24 450.24L226.47 450C226.856 449.956 227.245 449.956 227.63 450V450Z" fill="#EB996E"/>
<path d="M194.91 436.27C194.91 436.35 194.62 436.44 194.22 436.69C193.707 437.012 193.3 437.478 193.05 438.03C192.824 438.592 192.779 439.211 192.92 439.8C193.02 440.26 193.16 440.54 193.1 440.58C193.04 440.62 192.78 440.41 192.57 439.91C192.432 439.579 192.361 439.224 192.361 438.865C192.361 438.506 192.432 438.151 192.57 437.82C192.856 437.157 193.391 436.632 194.06 436.36C194.57 436.17 194.91 436.21 194.91 436.27Z" fill="#EB996E"/>
<path d="M197.62 427.47C197.62 427.54 197.29 427.7 196.81 428.05C196.18 428.497 195.679 429.102 195.358 429.804C195.036 430.507 194.906 431.281 194.98 432.05C194.98 432.64 195.14 433.05 195.06 433.05C194.98 433.05 194.76 432.75 194.61 432.11C194.43 431.265 194.528 430.384 194.89 429.6C195.246 428.815 195.85 428.168 196.61 427.76C197.19 427.43 197.61 427.41 197.62 427.47Z" fill="#EB996E"/>
<path d="M201.88 414.65C201.88 414.72 201.49 414.86 200.88 415.21C200.127 415.653 199.495 416.275 199.04 417.02C198.601 417.78 198.35 418.634 198.31 419.51C198.31 420.19 198.31 420.62 198.31 420.64C198.31 420.66 198.04 420.25 197.98 419.52C197.901 418.554 198.125 417.588 198.622 416.756C199.118 415.924 199.862 415.268 200.75 414.88C201.41 414.59 201.87 414.58 201.88 414.65Z" fill="#EB996E"/>
<path d="M206.89 415.53C206.552 414.232 206.083 412.972 205.49 411.77C204.4 409.83 203.3 408.35 203.44 408.25C204.477 409.171 205.329 410.28 205.95 411.52C206.445 412.384 206.783 413.328 206.95 414.31C207 415.06 207 415.53 206.89 415.53Z" fill="#EB996E"/>
<path d="M261 417C261 417 260.9 416.81 260.64 416.49C260.249 416.04 259.723 415.727 259.14 415.6C258.228 415.382 257.268 415.514 256.45 415.97C255.399 416.644 254.561 417.601 254.03 418.73C253.36 419.96 252.9 421.44 252.03 422.93C251.615 423.712 251.063 424.414 250.4 425C249.682 425.616 248.839 426.07 247.93 426.33C246.956 426.631 245.924 426.698 244.92 426.524C243.915 426.35 242.966 425.941 242.15 425.33C241.278 424.668 240.58 423.805 240.114 422.814C239.649 421.823 239.432 420.734 239.48 419.64C239.48 418.53 239.73 417.48 239.8 416.45C239.948 415.474 239.772 414.477 239.3 413.61C238.781 412.822 237.973 412.268 237.05 412.07C236.141 411.846 235.203 411.765 234.27 411.83C233.35 411.83 232.43 411.93 231.52 411.83C230.629 411.786 229.758 411.547 228.97 411.13C227.572 410.332 226.507 409.058 225.97 407.54C225.527 406.315 225.389 405 225.57 403.71C225.702 402.746 225.964 401.804 226.35 400.91C226.586 400.348 226.867 399.807 227.19 399.29C227.29 399.098 227.415 398.92 227.56 398.76C227.56 398.76 227.1 399.52 226.56 400.99C226.215 401.873 225.986 402.798 225.88 403.74C225.737 404.982 225.892 406.239 226.33 407.41C226.855 408.823 227.865 410.003 229.18 410.74C230.6 411.54 232.41 411.41 234.26 411.31C235.243 411.243 236.231 411.323 237.19 411.55C238.238 411.779 239.156 412.406 239.75 413.3C240.277 414.26 240.481 415.365 240.33 416.45C240.26 417.52 240.05 418.57 240.01 419.62C239.961 420.631 240.16 421.638 240.588 422.555C241.017 423.471 241.663 424.269 242.47 424.88C243.223 425.447 244.099 425.828 245.026 425.993C245.954 426.158 246.908 426.102 247.81 425.83C248.634 425.595 249.4 425.193 250.063 424.649C250.725 424.106 251.268 423.432 251.66 422.67C252.47 421.25 252.96 419.77 253.66 418.52C254.236 417.343 255.138 416.357 256.26 415.68C257.145 415.201 258.183 415.09 259.15 415.37C259.758 415.521 260.298 415.873 260.68 416.37C260.826 416.557 260.935 416.771 261 417Z" fill="white"/>
<path d="M249.38 446.26C249.38 446.26 249.59 445.74 249.75 444.75C249.961 443.356 249.704 441.932 249.02 440.7C248.507 439.815 247.781 439.072 246.908 438.539C246.035 438.007 245.042 437.701 244.02 437.65C242.778 437.707 241.541 437.854 240.32 438.09C239.621 438.217 238.902 438.194 238.212 438.022C237.522 437.849 236.877 437.532 236.32 437.09C235.795 436.565 235.446 435.891 235.32 435.16C235.18 434.48 235.13 433.81 235.04 433.16C235.017 432.568 234.844 431.992 234.538 431.485C234.232 430.978 233.803 430.557 233.29 430.26C232.327 429.74 231.221 429.551 230.14 429.72C229.194 429.853 228.289 430.195 227.49 430.72C226.317 431.507 225.385 432.604 224.8 433.89C224.39 434.8 224.32 435.37 224.27 435.36C224.244 435.225 224.244 435.085 224.27 434.95C224.334 434.56 224.438 434.178 224.58 433.81C225.114 432.44 226.044 431.26 227.25 430.42C228.082 429.821 229.04 429.421 230.05 429.25C231.229 429.056 232.44 429.249 233.5 429.8C234.079 430.112 234.565 430.57 234.91 431.13C235.24 431.719 235.448 432.369 235.52 433.04C235.71 434.33 235.69 435.77 236.64 436.65C237.147 437.036 237.729 437.312 238.35 437.458C238.97 437.605 239.614 437.619 240.24 437.5C241.484 437.265 242.745 437.128 244.01 437.09C245.112 437.147 246.181 437.484 247.116 438.071C248.05 438.657 248.82 439.473 249.35 440.44C250.043 441.746 250.259 443.252 249.96 444.7C249.874 445.087 249.754 445.465 249.6 445.83C249.556 445.986 249.481 446.133 249.38 446.26V446.26Z" fill="white"/>
<path d="M259.13 444.64C259.13 444.64 258.88 444.85 258.31 444.85C257.915 444.834 257.527 444.738 257.171 444.565C256.815 444.393 256.498 444.15 256.24 443.85C255.51 442.94 255.096 441.816 255.06 440.65C254.925 439.273 254.925 437.887 255.06 436.51C255.192 435.112 255.596 433.753 256.25 432.51C256.801 431.5 257.574 430.628 258.51 429.96C259.138 429.511 259.853 429.197 260.61 429.04C260.884 428.967 261.169 428.95 261.45 428.99C260.471 429.238 259.548 429.669 258.73 430.26C257.872 430.928 257.17 431.774 256.67 432.74C256.07 433.934 255.701 435.23 255.58 436.56C255.447 437.889 255.43 439.228 255.53 440.56C255.553 441.638 255.902 442.684 256.53 443.56C256.99 444.11 257.639 444.466 258.35 444.56C258.608 444.603 258.869 444.629 259.13 444.64V444.64Z" fill="white"/>
<path d="M259.88 399.09C259.94 399.377 259.94 399.673 259.88 399.96C259.765 400.75 259.508 401.512 259.12 402.21C258.548 403.263 257.714 404.151 256.7 404.79C255.439 405.556 253.971 405.912 252.5 405.81C251.028 405.708 249.623 405.153 248.48 404.22C247.583 403.438 246.895 402.445 246.48 401.33C246.18 400.589 246.017 399.799 246 399C245.973 398.709 246.011 398.415 246.11 398.14C246.179 399.185 246.405 400.213 246.78 401.19C247.229 402.221 247.914 403.132 248.78 403.85C249.857 404.699 251.165 405.204 252.533 405.299C253.902 405.393 255.267 405.073 256.45 404.38C257.408 403.794 258.214 402.988 258.8 402.03C259.309 401.111 259.673 400.12 259.88 399.09V399.09Z" fill="white"/>
<path d="M320.86 406.52L321.37 410.43L317.64 415.03L306.19 431.35L277.88 427.71L283.64 415.53L287.43 408.89C287.906 408.05 288.599 407.353 289.436 406.871C290.273 406.389 291.224 406.14 292.19 406.15" fill="#263238"/>
<path d="M313.59 406.38C313.59 406.38 320.69 400.07 325.45 401.6C330.21 403.13 343.81 401.6 343.45 407.37C343.09 413.14 340.9 416.21 336.65 415.53C334.504 415.284 332.42 414.65 330.5 413.66C330.5 413.66 331.99 414 330.5 419.1C329.01 424.2 323.56 433.79 321.5 436.05C319.44 438.31 318.61 438.55 317.59 438.43C316.57 438.31 312.5 442.21 310.97 442.38C309.44 442.55 310.12 442.38 310.12 442.38C308.577 443.791 306.624 444.674 304.546 444.9C302.467 445.127 300.371 444.685 298.56 443.64C291.93 440 286.15 438.47 285.64 437.64C285.13 436.81 277.64 429.57 276.3 427.49C274.96 425.41 271.2 416.4 271.37 415.55C271.54 414.7 275.45 411.55 278.51 414.67C278.51 414.67 280.21 413.17 283.6 415.55C286.99 417.93 297.03 421.09 297.03 421.09C297.03 421.09 295.5 419.26 295.67 417.66C295.84 416.06 297.2 413.34 299.75 413.66C302.3 413.98 318 415.53 318 415.53L321.4 410.43L320.89 406.52L313.59 406.38Z" fill="#FFBE9D"/>
<path d="M323.76 426.62C323.413 426.743 323.055 426.83 322.69 426.88C321.698 427.059 320.696 427.183 319.69 427.25C313.018 427.706 306.353 426.26 300.47 423.08C299.585 422.609 298.73 422.085 297.91 421.51C297.593 421.32 297.301 421.092 297.04 420.83C297.09 420.75 298.39 421.63 300.64 422.76C306.528 425.705 313.061 427.122 319.64 426.88C322.2 426.78 323.75 426.53 323.76 426.62Z" fill="#EB996E"/>
<path d="M324.06 415C322.888 415.59 321.591 415.885 320.28 415.86C318.973 416.006 317.651 415.827 316.43 415.34C316.43 415.19 318.16 415.44 320.25 415.34C322.34 415.24 324 414.88 324.06 415Z" fill="#EB996E"/>
<path d="M331.75 414.48C331.68 414.62 329.39 413.65 326.44 412.84C323.49 412.03 321.03 411.66 321.05 411.51C322.927 411.476 324.796 411.757 326.58 412.34C328.412 412.756 330.16 413.48 331.75 414.48V414.48Z" fill="#EB996E"/>
<path d="M330.26 403.57C330.41 403.62 329.82 405.39 329.8 407.64C329.749 408.585 329.844 409.533 330.08 410.45C330.31 411.12 330.77 411.29 330.74 411.36C330.71 411.43 330.6 411.36 330.39 411.3C330.109 411.136 329.883 410.892 329.74 410.6C329.371 409.645 329.211 408.622 329.27 407.6C329.211 406.19 329.555 404.792 330.26 403.57V403.57Z" fill="#EB996E"/>
<path d="M314.66 436.47C314.491 436.492 314.319 436.492 314.15 436.47L312.71 436.42C311.47 436.35 309.71 436.26 307.43 436C304.813 435.717 302.23 435.175 299.72 434.38C298.238 433.892 296.803 433.273 295.43 432.53C294.01 431.75 292.61 430.84 291.17 429.93C284.71 425.8 278.96 422.09 275.25 419.65L275.16 419.59V419.49C275.342 418.039 276.08 416.716 277.22 415.8C277.529 415.561 277.864 415.36 278.22 415.2C278.338 415.142 278.462 415.098 278.59 415.07C278.164 415.332 277.756 415.622 277.37 415.94C276.332 416.867 275.676 418.146 275.53 419.53L275.46 419.37C279.23 421.71 285.02 425.37 291.46 429.49C292.9 430.41 294.29 431.31 295.69 432.08C297.031 432.815 298.433 433.434 299.88 433.93C302.357 434.736 304.905 435.305 307.49 435.63C309.69 435.94 311.49 436.09 312.74 436.21L314.17 436.36C314.338 436.372 314.503 436.409 314.66 436.47V436.47Z" fill="#EB996E"/>
<path d="M309.18 442C308.669 441.99 308.161 441.933 307.66 441.83C306.66 441.68 305.28 441.44 303.56 441.06C299.073 440.095 294.679 438.736 290.43 437C288.083 436.015 285.888 434.702 283.91 433.1C282.314 431.781 280.829 430.333 279.47 428.77C278.31 427.45 277.42 426.34 276.81 425.57C276.481 425.178 276.181 424.764 275.91 424.33C276.299 424.665 276.654 425.037 276.97 425.44C277.62 426.17 278.55 427.24 279.74 428.52C281.124 430.028 282.618 431.432 284.21 432.72C286.17 434.274 288.334 435.552 290.64 436.52C294.861 438.239 299.207 439.633 303.64 440.69C305.34 441.11 306.73 441.41 307.69 441.62C308.197 441.703 308.695 441.83 309.18 442V442Z" fill="#EB996E"/>
<path d="M321.14 410.81C320.653 410.874 320.16 410.89 319.67 410.86L315.67 410.79C312.28 410.71 307.6 410.56 302.43 410.37C300.013 410.256 297.592 410.289 295.18 410.47L293.54 410.57C293.058 410.543 292.578 410.658 292.16 410.9C291.389 411.377 290.711 411.99 290.16 412.71C289.343 413.74 288.62 414.841 288 416C287.796 416.448 287.562 416.883 287.3 417.3C287.422 416.819 287.597 416.353 287.82 415.91C288.381 414.683 289.072 413.52 289.88 412.44C290.42 411.657 291.097 410.98 291.88 410.44C292.117 410.299 292.373 410.191 292.64 410.12C292.907 410.067 293.178 410.037 293.45 410.03L295.09 409.92C297.517 409.701 299.956 409.651 302.39 409.77C307.56 409.96 312.24 410.17 315.62 410.34L319.62 410.57C320.133 410.598 320.643 410.678 321.14 410.81V410.81Z" fill="#455A64"/>
<path d="M173.14 317.84C172.026 315.147 171.068 312.393 170.27 309.59C169.322 306.837 168.531 304.032 167.9 301.19C169.019 303.881 169.978 306.636 170.77 309.44C171.732 312.189 172.523 314.994 173.14 317.84V317.84Z" fill="#263238"/>
<path d="M323.55 293.17C323.541 293.993 323.457 294.813 323.3 295.62C323.07 297.32 322.8 299.3 322.51 301.5C322.22 303.7 322.02 305.69 321.83 307.39C321.786 308.213 321.666 309.03 321.47 309.83C321.371 309.01 321.371 308.18 321.47 307.36C321.54 305.84 321.71 303.74 322 301.43C322.29 299.12 322.64 297.05 322.94 295.56C323.048 294.742 323.253 293.94 323.55 293.17V293.17Z" fill="#263238"/>
<path d="M441.15 477.88C441.15 478.02 355.56 478.14 250.01 478.14C144.46 478.14 58.8501 478 58.8501 477.88C58.8501 477.76 144.42 477.62 250.01 477.62C355.6 477.62 441.15 477.74 441.15 477.88Z" fill="#263238"/>
<path d="M158.32 349.26V379.12H288.68L306.91 400.27V379.12H347.64V349.26H158.32Z" fill="#FAFAFA"/>
<path d="M177.704 359.456C178.712 359.456 179.552 359.704 180.224 360.2C180.896 360.696 181.34 361.372 181.556 362.228H180.116C179.932 361.772 179.628 361.408 179.204 361.136C178.788 360.864 178.292 360.728 177.716 360.728C177.188 360.728 176.712 360.852 176.288 361.1C175.872 361.348 175.544 361.7 175.304 362.156C175.072 362.612 174.956 363.148 174.956 363.764C174.956 364.412 175.076 364.968 175.316 365.432C175.556 365.896 175.892 366.252 176.324 366.5C176.764 366.74 177.272 366.86 177.848 366.86C178.552 366.86 179.156 366.644 179.66 366.212C180.164 365.772 180.468 365.172 180.572 364.412H177.464V363.404H181.724V364.712C181.628 365.336 181.404 365.904 181.052 366.416C180.708 366.92 180.248 367.324 179.672 367.628C179.104 367.932 178.452 368.084 177.716 368.084C176.892 368.084 176.164 367.9 175.532 367.532C174.9 367.164 174.412 366.656 174.068 366.008C173.724 365.352 173.552 364.604 173.552 363.764C173.552 362.924 173.724 362.18 174.068 361.532C174.412 360.876 174.896 360.368 175.52 360.008C176.152 359.64 176.88 359.456 177.704 359.456ZM189.253 364.376C189.253 364.6 189.237 364.796 189.205 364.964H184.117C184.141 365.644 184.329 366.148 184.681 366.476C185.033 366.804 185.469 366.968 185.989 366.968C186.445 366.968 186.829 366.852 187.141 366.62C187.461 366.388 187.657 366.08 187.729 365.696H189.193C189.105 366.16 188.921 366.572 188.641 366.932C188.361 367.292 187.997 367.576 187.549 367.784C187.101 367.984 186.601 368.084 186.049 368.084C185.409 368.084 184.841 367.948 184.345 367.676C183.857 367.404 183.473 367.012 183.193 366.5C182.913 365.988 182.773 365.384 182.773 364.688C182.773 364 182.913 363.4 183.193 362.888C183.473 362.376 183.857 361.984 184.345 361.712C184.841 361.44 185.409 361.304 186.049 361.304C186.697 361.304 187.261 361.44 187.741 361.712C188.229 361.976 188.601 362.344 188.857 362.816C189.121 363.28 189.253 363.8 189.253 364.376ZM187.873 364.34C187.889 363.908 187.813 363.548 187.645 363.26C187.485 362.964 187.261 362.748 186.973 362.612C186.693 362.468 186.385 362.396 186.049 362.396C185.513 362.396 185.065 362.56 184.705 362.888C184.345 363.216 184.149 363.7 184.117 364.34H187.873ZM193.898 366.812V368H193.058C192.354 368 191.818 367.832 191.45 367.496C191.09 367.152 190.91 366.584 190.91 365.792V362.552H189.962V361.388H190.91V359.744H192.29V361.388H193.886V362.552H192.29V365.816C192.29 366.192 192.358 366.452 192.494 366.596C192.638 366.74 192.886 366.812 193.238 366.812H193.898ZM201.772 359.444C202.812 359.444 203.676 359.708 204.364 360.236C205.052 360.764 205.516 361.48 205.756 362.384H204.304C204.104 361.872 203.784 361.468 203.344 361.172C202.912 360.868 202.38 360.716 201.748 360.716C201.244 360.716 200.792 360.84 200.392 361.088C200 361.336 199.688 361.692 199.456 362.156C199.232 362.612 199.12 363.148 199.12 363.764C199.12 364.372 199.232 364.908 199.456 365.372C199.688 365.828 200 366.18 200.392 366.428C200.792 366.676 201.244 366.8 201.748 366.8C202.38 366.8 202.912 366.652 203.344 366.356C203.784 366.052 204.104 365.648 204.304 365.144H205.756C205.516 366.048 205.052 366.764 204.364 367.292C203.676 367.812 202.812 368.072 201.772 368.072C200.972 368.072 200.264 367.892 199.648 367.532C199.032 367.164 198.556 366.656 198.22 366.008C197.884 365.352 197.716 364.604 197.716 363.764C197.716 362.924 197.884 362.18 198.22 361.532C198.556 360.876 199.032 360.364 199.648 359.996C200.264 359.628 200.972 359.444 201.772 359.444ZM208.489 362.684C208.713 362.252 209.033 361.912 209.449 361.664C209.865 361.408 210.345 361.28 210.889 361.28V362.768H210.481C209.881 362.768 209.397 362.916 209.029 363.212C208.669 363.5 208.489 363.98 208.489 364.652V368H207.121V361.388H208.489V362.684ZM218.058 364.376C218.058 364.6 218.042 364.796 218.01 364.964H212.922C212.946 365.644 213.134 366.148 213.486 366.476C213.838 366.804 214.274 366.968 214.794 366.968C215.25 366.968 215.634 366.852 215.946 366.62C216.266 366.388 216.462 366.08 216.534 365.696H217.998C217.91 366.16 217.726 366.572 217.446 366.932C217.166 367.292 216.802 367.576 216.354 367.784C215.906 367.984 215.406 368.084 214.854 368.084C214.214 368.084 213.646 367.948 213.15 367.676C212.662 367.404 212.278 367.012 211.998 366.5C211.718 365.988 211.578 365.384 211.578 364.688C211.578 364 211.718 363.4 211.998 362.888C212.278 362.376 212.662 361.984 213.15 361.712C213.646 361.44 214.214 361.304 214.854 361.304C215.502 361.304 216.066 361.44 216.546 361.712C217.034 361.976 217.406 362.344 217.662 362.816C217.926 363.28 218.058 363.8 218.058 364.376ZM216.678 364.34C216.694 363.908 216.618 363.548 216.45 363.26C216.29 362.964 216.066 362.748 215.778 362.612C215.498 362.468 215.19 362.396 214.854 362.396C214.318 362.396 213.87 362.56 213.51 362.888C213.15 363.216 212.954 363.7 212.922 364.34H216.678ZM222.031 361.304C222.631 361.304 223.143 361.452 223.567 361.748C223.991 362.044 224.291 362.436 224.467 362.924V361.388H225.835V368H224.467V366.464C224.291 366.952 223.991 367.344 223.567 367.64C223.143 367.936 222.631 368.084 222.031 368.084C221.455 368.084 220.939 367.948 220.483 367.676C220.035 367.404 219.683 367.012 219.427 366.5C219.171 365.988 219.043 365.384 219.043 364.688C219.043 364 219.171 363.4 219.427 362.888C219.683 362.376 220.035 361.984 220.483 361.712C220.939 361.44 221.455 361.304 222.031 361.304ZM222.451 362.504C221.843 362.504 221.355 362.7 220.987 363.092C220.627 363.476 220.447 364.008 220.447 364.688C220.447 365.368 220.627 365.904 220.987 366.296C221.355 366.68 221.843 366.872 222.451 366.872C222.835 366.872 223.179 366.784 223.483 366.608C223.787 366.424 224.027 366.168 224.203 365.84C224.379 365.512 224.467 365.128 224.467 364.688C224.467 364.256 224.379 363.876 224.203 363.548C224.027 363.212 223.787 362.956 223.483 362.78C223.179 362.596 222.835 362.504 222.451 362.504ZM230.8 366.812V368H229.96C229.256 368 228.72 367.832 228.352 367.496C227.992 367.152 227.812 366.584 227.812 365.792V362.552H226.864V361.388H227.812V359.744H229.192V361.388H230.788V362.552H229.192V365.816C229.192 366.192 229.26 366.452 229.396 366.596C229.54 366.74 229.788 366.812 230.14 366.812H230.8ZM231.89 359.468C231.89 359.236 231.97 359.044 232.13 358.892C232.29 358.74 232.502 358.664 232.766 358.664C233.03 358.664 233.242 358.74 233.402 358.892C233.57 359.044 233.654 359.236 233.654 359.468C233.654 359.7 233.57 359.888 233.402 360.032C233.242 360.176 233.03 360.248 232.766 360.248C232.502 360.248 232.29 360.176 232.13 360.032C231.97 359.888 231.89 359.7 231.89 359.468ZM233.45 361.388V368H232.082V361.388H233.45ZM237.817 366.584L239.689 361.388H241.153L238.633 368H236.977L234.457 361.388H235.921L237.817 366.584ZM248.304 364.376C248.304 364.6 248.288 364.796 248.256 364.964H243.168C243.192 365.644 243.38 366.148 243.732 366.476C244.084 366.804 244.52 366.968 245.04 366.968C245.496 366.968 245.88 366.852 246.192 366.62C246.512 366.388 246.708 366.08 246.78 365.696H248.244C248.156 366.16 247.972 366.572 247.692 366.932C247.412 367.292 247.048 367.576 246.6 367.784C246.152 367.984 245.652 368.084 245.1 368.084C244.46 368.084 243.892 367.948 243.396 367.676C242.908 367.404 242.524 367.012 242.244 366.5C241.964 365.988 241.824 365.384 241.824 364.688C241.824 364 241.964 363.4 242.244 362.888C242.524 362.376 242.908 361.984 243.396 361.712C243.892 361.44 244.46 361.304 245.1 361.304C245.748 361.304 246.312 361.44 246.792 361.712C247.28 361.976 247.652 362.344 247.908 362.816C248.172 363.28 248.304 363.8 248.304 364.376ZM246.924 364.34C246.94 363.908 246.864 363.548 246.696 363.26C246.536 362.964 246.312 362.748 246.024 362.612C245.744 362.468 245.436 362.396 245.1 362.396C244.564 362.396 244.116 362.56 243.756 362.888C243.396 363.216 243.2 363.7 243.168 364.34H246.924ZM259.289 368H257.921L253.805 361.748V368H252.437V359.54H253.805L257.921 365.816V359.54H259.289V368ZM263.597 361.304C264.197 361.304 264.709 361.452 265.133 361.748C265.557 362.044 265.857 362.436 266.033 362.924V361.388H267.401V368H266.033V366.464C265.857 366.952 265.557 367.344 265.133 367.64C264.709 367.936 264.197 368.084 263.597 368.084C263.021 368.084 262.505 367.948 262.049 367.676C261.601 367.404 261.249 367.012 260.993 366.5C260.737 365.988 260.609 365.384 260.609 364.688C260.609 364 260.737 363.4 260.993 362.888C261.249 362.376 261.601 361.984 262.049 361.712C262.505 361.44 263.021 361.304 263.597 361.304ZM264.017 362.504C263.409 362.504 262.921 362.7 262.553 363.092C262.193 363.476 262.013 364.008 262.013 364.688C262.013 365.368 262.193 365.904 262.553 366.296C262.921 366.68 263.409 366.872 264.017 366.872C264.401 366.872 264.745 366.784 265.049 366.608C265.353 366.424 265.593 366.168 265.769 365.84C265.945 365.512 266.033 365.128 266.033 364.688C266.033 364.256 265.945 363.876 265.769 363.548C265.593 363.212 265.353 362.956 265.049 362.78C264.745 362.596 264.401 362.504 264.017 362.504ZM277.311 361.28C278.095 361.28 278.719 361.528 279.183 362.024C279.655 362.52 279.891 363.228 279.891 364.148V368H278.523V364.292C278.523 363.716 278.379 363.272 278.091 362.96C277.803 362.64 277.407 362.48 276.903 362.48C276.367 362.48 275.939 362.652 275.619 362.996C275.307 363.332 275.151 363.828 275.151 364.484V368H273.783V364.292C273.783 363.716 273.639 363.272 273.351 362.96C273.063 362.64 272.667 362.48 272.163 362.48C271.627 362.48 271.199 362.652 270.879 362.996C270.567 363.332 270.411 363.828 270.411 364.484V368H269.043V361.388H270.411V362.768C270.579 362.288 270.859 361.92 271.251 361.664C271.643 361.408 272.103 361.28 272.631 361.28C273.183 361.28 273.659 361.416 274.059 361.688C274.467 361.96 274.763 362.352 274.947 362.864C275.139 362.368 275.447 361.98 275.871 361.7C276.295 361.42 276.775 361.28 277.311 361.28ZM287.632 364.376C287.632 364.6 287.616 364.796 287.584 364.964H282.496C282.52 365.644 282.708 366.148 283.06 366.476C283.412 366.804 283.848 366.968 284.368 366.968C284.824 366.968 285.208 366.852 285.52 366.62C285.84 366.388 286.036 366.08 286.108 365.696H287.572C287.484 366.16 287.3 366.572 287.02 366.932C286.74 367.292 286.376 367.576 285.928 367.784C285.48 367.984 284.98 368.084 284.428 368.084C283.788 368.084 283.22 367.948 282.724 367.676C282.236 367.404 281.852 367.012 281.572 366.5C281.292 365.988 281.152 365.384 281.152 364.688C281.152 364 281.292 363.4 281.572 362.888C281.852 362.376 282.236 361.984 282.724 361.712C283.22 361.44 283.788 361.304 284.428 361.304C285.076 361.304 285.64 361.44 286.12 361.712C286.608 361.976 286.98 362.344 287.236 362.816C287.5 363.28 287.632 363.8 287.632 364.376ZM286.252 364.34C286.268 363.908 286.192 363.548 286.024 363.26C285.864 362.964 285.64 362.748 285.352 362.612C285.072 362.468 284.764 362.396 284.428 362.396C283.892 362.396 283.444 362.56 283.084 362.888C282.724 363.216 282.528 363.7 282.496 364.34H286.252ZM291.125 361.304C291.901 361.304 292.521 361.504 292.985 361.904C293.457 362.296 293.745 362.824 293.849 363.488H292.553C292.497 363.128 292.341 362.84 292.085 362.624C291.837 362.4 291.505 362.288 291.089 362.288C290.745 362.288 290.477 362.372 290.285 362.54C290.101 362.7 290.009 362.92 290.009 363.2C290.009 363.408 290.077 363.576 290.213 363.704C290.349 363.832 290.517 363.932 290.717 364.004C290.925 364.076 291.217 364.156 291.593 364.244C292.089 364.356 292.489 364.472 292.793 364.592C293.105 364.712 293.369 364.904 293.585 365.168C293.809 365.424 293.921 365.776 293.921 366.224C293.921 366.776 293.709 367.224 293.285 367.568C292.869 367.912 292.305 368.084 291.593 368.084C290.769 368.084 290.101 367.892 289.589 367.508C289.085 367.124 288.781 366.588 288.677 365.9H290.009C290.049 366.26 290.209 366.552 290.489 366.776C290.769 367 291.137 367.112 291.593 367.112C291.921 367.112 292.177 367.028 292.361 366.86C292.553 366.684 292.649 366.464 292.649 366.2C292.649 365.968 292.577 365.784 292.433 365.648C292.289 365.512 292.109 365.408 291.893 365.336C291.677 365.256 291.381 365.176 291.005 365.096C290.525 364.984 290.133 364.872 289.829 364.76C289.533 364.648 289.277 364.468 289.061 364.22C288.853 363.964 288.749 363.62 288.749 363.188C288.749 362.628 288.957 362.176 289.373 361.832C289.797 361.48 290.381 361.304 291.125 361.304Z" fill="#7D30FA"/>
<path d="M347.64 349.26H311.61V379.11H347.64V349.26Z" fill="#407BFF"/>
<path d="M328.35 368.23C327 368.228 325.68 367.826 324.558 367.074C323.437 366.322 322.563 365.255 322.047 364.007C321.532 362.759 321.398 361.386 321.663 360.061C321.927 358.737 322.579 357.521 323.534 356.567C324.49 355.613 325.707 354.963 327.032 354.7C328.356 354.438 329.729 354.574 330.976 355.091C332.224 355.608 333.29 356.484 334.04 357.606C334.79 358.729 335.19 360.05 335.19 361.4C335.188 363.212 334.466 364.95 333.183 366.23C331.901 367.511 330.163 368.23 328.35 368.23ZM328.35 355.57C327.198 355.572 326.071 355.916 325.114 356.557C324.157 357.199 323.411 358.11 322.971 359.176C322.531 360.241 322.417 361.413 322.644 362.543C322.87 363.674 323.426 364.712 324.241 365.526C325.057 366.34 326.096 366.895 327.227 367.119C328.357 367.343 329.529 367.227 330.594 366.785C331.658 366.344 332.568 365.596 333.208 364.638C333.849 363.679 334.19 362.553 334.19 361.4C334.188 359.853 333.571 358.37 332.476 357.277C331.381 356.184 329.897 355.57 328.35 355.57V355.57Z" fill="#263238"/>
<path d="M338.59 372.58C338.455 372.58 338.325 372.526 338.23 372.43L332.23 366.43C332.183 366.384 332.146 366.328 332.12 366.267C332.095 366.206 332.082 366.141 332.082 366.075C332.082 366.009 332.095 365.944 332.12 365.883C332.146 365.822 332.183 365.766 332.23 365.72C332.323 365.628 332.449 365.577 332.58 365.577C332.711 365.577 332.836 365.628 332.93 365.72L338.93 371.72C338.998 371.79 339.045 371.878 339.064 371.974C339.082 372.07 339.073 372.17 339.035 372.26C338.998 372.351 338.935 372.428 338.854 372.484C338.773 372.539 338.678 372.569 338.58 372.57L338.59 372.58Z" fill="#263238"/>
<path d="M158.32 349.26H159.24H161.98H172.63L212.33 349.18L347.64 349H347.9V379.37H306.9L307.16 379.11V401L306.71 400.48L288.48 379.32L288.67 379.41L158.31 379.28H158.18V379.16C158.18 369.47 158.24 361.99 158.25 356.93C158.25 354.42 158.25 352.52 158.25 351.22C158.25 349.92 158.25 349.3 158.25 349.3C158.25 349.3 158.25 349.98 158.25 351.3C158.25 352.62 158.25 354.52 158.25 357.04C158.25 362.04 158.25 369.53 158.32 379.19L158.2 379.06L288.56 378.94H288.67L288.74 379.03L306.99 400.17L306.54 400.34C306.54 393.413 306.54 386.363 306.54 379.19V378.93H347.54L347.28 379.19C347.28 368.94 347.28 358.86 347.28 349.33L347.53 349.59L212.4 349.47L172.64 349.4H161.94H159.16C158.65 349.28 158.32 349.26 158.32 349.26Z" fill="#263238"/>
</svg>
